<svg width="80" height="56" viewBox="0 0 80 56" fill="none" xmlns="http://www.w3.org/2000/svg">
<path d="M43 26.5V27.5C43 29.1569 41.6569 30.5 40 30.5C38.3431 30.5 37 29.1569 37 27.5V26.5M43 26.5H37M43 26.5H46.5905C46.973 26.5 47.1652 26.5 47.3201 26.4478C47.616 26.348 47.8475 26.1156 47.9473 25.8198C47.9997 25.6643 47.9997 25.4715 47.9997 25.0859C47.9997 24.9172 47.9995 24.8329 47.9863 24.7524C47.9614 24.6004 47.9024 24.4563 47.8126 24.3312C47.7651 24.2651 47.7048 24.2048 47.5858 24.0858L47.1963 23.6963C47.0706 23.5706 47 23.4001 47 23.2224V19.5C47 15.634 43.866 12.5 40 12.5C36.134 12.5 33 15.634 33 19.5V23.2224C33 23.4002 32.9292 23.5706 32.8036 23.6963L32.4141 24.0858C32.2948 24.2051 32.235 24.265 32.1875 24.3312C32.0977 24.4564 32.0381 24.6004 32.0132 24.7524C32 24.8329 32 24.9172 32 25.086C32 25.4715 32 25.6642 32.0525 25.8197C32.1523 26.1156 32.3848 26.348 32.6807 26.4478C32.8356 26.5 33.027 26.5 33.4096 26.5H37" stroke="white" stroke-width="2" stroke-linecap="round" stroke-linejoin="round"/>
<path d="M25.9153 43.556C25.6539 43.556 25.4486 43.4787 25.2993 43.324C25.1499 43.1693 25.0753 42.9533 25.0753 42.676V39.236H25.7633V42.188C25.6833 42.188 25.6033 42.22 25.5233 42.284C25.4433 42.3427 25.3739 42.4173 25.3153 42.508C25.2619 42.5933 25.2353 42.6787 25.2353 42.764H25.1313C25.1313 42.5347 25.1953 42.3453 25.3233 42.196C25.4566 42.0467 25.6539 41.972 25.9153 41.972C26.1659 41.972 26.3659 42.0413 26.5153 42.18C26.6699 42.3187 26.7473 42.5107 26.7473 42.756C26.7473 43.0013 26.6726 43.196 26.5233 43.34C26.3739 43.484 26.1713 43.556 25.9153 43.556ZM25.9153 43.172C26.0433 43.172 26.1419 43.1373 26.2113 43.068C26.2806 42.9933 26.3153 42.892 26.3153 42.764C26.3153 42.636 26.2806 42.5373 26.2113 42.468C26.1419 42.3933 26.0433 42.356 25.9153 42.356C25.7873 42.356 25.6886 42.3907 25.6193 42.46C25.5499 42.5293 25.5153 42.6307 25.5153 42.764C25.5153 42.892 25.5499 42.9933 25.6193 43.068C25.6886 43.1373 25.7873 43.172 25.9153 43.172ZM28.1873 43.556C27.9259 43.556 27.7206 43.4787 27.5713 43.324C27.4219 43.1693 27.3473 42.9533 27.3473 42.676V39.236H28.0353V42.188C27.9553 42.188 27.8753 42.22 27.7953 42.284C27.7153 42.3427 27.6459 42.4173 27.5873 42.508C27.5339 42.5933 27.5073 42.6787 27.5073 42.764H27.4033C27.4033 42.5347 27.4673 42.3453 27.5953 42.196C27.7286 42.0467 27.9259 41.972 28.1873 41.972C28.4379 41.972 28.6379 42.0413 28.7873 42.18C28.9419 42.3187 29.0193 42.5107 29.0193 42.756C29.0193 43.0013 28.9446 43.196 28.7953 43.34C28.6459 43.484 28.4433 43.556 28.1873 43.556ZM28.1873 43.172C28.3153 43.172 28.4139 43.1373 28.4833 43.068C28.5526 42.9933 28.5873 42.892 28.5873 42.764C28.5873 42.636 28.5526 42.5373 28.4833 42.468C28.4139 42.3933 28.3153 42.356 28.1873 42.356C28.0593 42.356 27.9606 42.3907 27.8913 42.46C27.8219 42.5293 27.7873 42.6307 27.7873 42.764C27.7873 42.892 27.8219 42.9933 27.8913 43.068C27.9606 43.1373 28.0593 43.172 28.1873 43.172ZM30.6787 43.5V41.98C30.7587 41.98 30.8387 41.9507 30.9187 41.892C30.9987 41.828 31.0653 41.7533 31.1187 41.668C31.1773 41.5773 31.2067 41.4893 31.2067 41.404H31.3107C31.3107 41.6333 31.244 41.8227 31.1107 41.972C30.9827 42.1213 30.788 42.196 30.5267 42.196C30.2813 42.196 30.0813 42.1267 29.9267 41.988C29.772 41.8493 29.6947 41.6573 29.6947 41.412C29.6947 41.1613 29.7693 40.9667 29.9187 40.828C30.068 40.684 30.2707 40.612 30.5267 40.612C30.788 40.612 30.9933 40.6893 31.1427 40.844C31.292 40.9933 31.3667 41.2093 31.3667 41.492V43.02L31.2467 42.924H31.4227C31.6893 42.924 31.9027 42.8573 32.0627 42.724C32.2227 42.5907 32.34 42.404 32.4147 42.164C32.4893 41.9187 32.5267 41.636 32.5267 41.316C32.5267 40.772 32.4067 40.372 32.1667 40.116C31.932 39.86 31.5853 39.732 31.1267 39.732C30.876 39.732 30.644 39.756 30.4307 39.804C30.2173 39.8467 30.0173 39.9053 29.8307 39.98L29.6387 39.42C29.8573 39.34 30.092 39.276 30.3427 39.228C30.5987 39.18 30.8813 39.156 31.1907 39.156C31.644 39.156 32.02 39.244 32.3187 39.42C32.6173 39.5907 32.8413 39.8387 32.9907 40.164C33.14 40.484 33.2147 40.868 33.2147 41.316C33.2147 41.7107 33.1613 42.0733 33.0547 42.404C32.9533 42.7347 32.7773 43.0013 32.5267 43.204C32.2813 43.4013 31.9427 43.5 31.5107 43.5H30.6787ZM30.5267 41.812C30.6547 41.812 30.7533 41.7773 30.8227 41.708C30.892 41.6387 30.9267 41.5373 30.9267 41.404C30.9267 41.276 30.892 41.1773 30.8227 41.108C30.7533 41.0333 30.6547 40.996 30.5267 40.996C30.3987 40.996 30.3 41.0333 30.2307 41.108C30.1613 41.1773 30.1267 41.276 30.1267 41.404C30.1267 41.532 30.1613 41.6333 30.2307 41.708C30.3 41.7773 30.3987 41.812 30.5267 41.812ZM31.8277 38.756C31.6357 38.756 31.4703 38.7533 31.3317 38.748C31.1983 38.7427 31.0383 38.732 30.8517 38.716V38.372C31.0383 38.3453 31.1903 38.2893 31.3077 38.204C31.4303 38.1187 31.4917 38.0173 31.4917 37.9V37.86C31.6197 37.86 31.7237 37.8147 31.8037 37.724C31.8837 37.628 31.9237 37.5213 31.9237 37.404H32.0837C32.0837 37.5853 32.025 37.7373 31.9077 37.86C31.7903 37.9773 31.6277 38.036 31.4197 38.036C31.2223 38.036 31.0597 37.98 30.9317 37.868C30.809 37.756 30.7477 37.6013 30.7477 37.404C30.7477 37.2013 30.8117 37.044 30.9397 36.932C31.073 36.82 31.241 36.764 31.4437 36.764C31.6783 36.764 31.8623 36.8307 31.9957 36.964C32.129 37.0973 32.1957 37.2707 32.1957 37.484C32.1957 37.6653 32.145 37.8387 32.0437 38.004C31.9423 38.1693 31.817 38.3053 31.6677 38.412L31.4677 38.244C31.5157 38.2493 31.5637 38.2547 31.6117 38.26C31.6597 38.2653 31.705 38.268 31.7477 38.268C32.0357 38.268 32.2783 38.212 32.4757 38.1C32.673 37.988 32.8277 37.8227 32.9397 37.604C33.0517 37.3853 33.121 37.1187 33.1477 36.804L33.7557 36.9C33.7183 37.1613 33.6543 37.4067 33.5637 37.636C33.473 37.86 33.3503 38.0573 33.1957 38.228C33.041 38.3933 32.849 38.524 32.6197 38.62C32.3957 38.7107 32.1317 38.756 31.8277 38.756ZM31.4437 37.708C31.5503 37.708 31.633 37.6813 31.6917 37.628C31.7503 37.5747 31.7797 37.5 31.7797 37.404C31.7797 37.308 31.7503 37.2333 31.6917 37.18C31.633 37.1213 31.5503 37.092 31.4437 37.092C31.3423 37.092 31.2623 37.1213 31.2037 37.18C31.145 37.2333 31.1157 37.308 31.1157 37.404C31.1157 37.5 31.145 37.5747 31.2037 37.628C31.2623 37.6813 31.3423 37.708 31.4437 37.708ZM37.1718 42.428C37.1718 42.812 37.0678 43.0867 36.8598 43.252C36.6571 43.4173 36.3744 43.5 36.0118 43.5H35.1558C35.0651 43.148 34.9638 42.8147 34.8518 42.5C34.7398 42.1853 34.6118 41.8733 34.4678 41.564C34.3291 41.2493 34.1718 40.916 33.9958 40.564L34.6038 40.308C34.7744 40.6173 34.9291 40.924 35.0678 41.228C35.2064 41.532 35.3291 41.8413 35.4358 42.156C35.5424 42.4653 35.6278 42.7907 35.6918 43.132L35.3398 42.924H35.9958C36.1824 42.924 36.3104 42.8813 36.3798 42.796C36.4491 42.7053 36.4838 42.5667 36.4838 42.38V40.548C36.5638 40.548 36.6438 40.5187 36.7238 40.46C36.8091 40.396 36.8784 40.3213 36.9318 40.236C36.9851 40.1453 37.0118 40.0573 37.0118 39.972H37.1158C37.1158 40.2013 37.0491 40.3907 36.9158 40.54C36.7878 40.6893 36.5931 40.764 36.3318 40.764C36.0864 40.764 35.8864 40.6947 35.7318 40.556C35.5771 40.4173 35.4998 40.2253 35.4998 39.98C35.4998 39.7293 35.5744 39.5347 35.7238 39.396C35.8731 39.252 36.0758 39.18 36.3318 39.18C36.5931 39.18 36.7984 39.2573 36.9478 39.412C37.0971 39.5613 37.1718 39.7773 37.1718 40.06V42.428ZM36.3318 40.38C36.4598 40.38 36.5584 40.3453 36.6278 40.276C36.6971 40.2067 36.7318 40.1053 36.7318 39.972C36.7318 39.844 36.6971 39.7453 36.6278 39.676C36.5584 39.6013 36.4598 39.564 36.3318 39.564C36.2038 39.564 36.1051 39.6013 36.0358 39.676C35.9664 39.7453 35.9318 39.844 35.9318 39.972C35.9318 40.1 35.9664 40.2013 36.0358 40.276C36.1051 40.3453 36.2038 40.38 36.3318 40.38ZM39.2633 39.236V42.188C39.1833 42.188 39.1033 42.22 39.0233 42.284C38.9433 42.3427 38.8739 42.4173 38.8153 42.508C38.7619 42.5933 38.7353 42.6787 38.7353 42.764H38.6313C38.6313 42.5347 38.6953 42.3453 38.8233 42.196C38.9566 42.0467 39.1539 41.972 39.4153 41.972C39.6659 41.972 39.8659 42.0413 40.0153 42.18C40.1699 42.3187 40.2473 42.5107 40.2473 42.756C40.2473 43.0013 40.1726 43.196 40.0233 43.34C39.8739 43.484 39.6713 43.556 39.4153 43.556C39.1539 43.556 38.9486 43.4787 38.7993 43.324C38.6499 43.1693 38.5753 42.9533 38.5753 42.676V39.236H39.2633ZM39.4153 42.356C39.2873 42.356 39.1886 42.3907 39.1193 42.46C39.0499 42.5293 39.0153 42.6307 39.0153 42.764C39.0153 42.892 39.0499 42.9933 39.1193 43.068C39.1886 43.1373 39.2873 43.172 39.4153 43.172C39.5433 43.172 39.6419 43.1373 39.7113 43.068C39.7806 42.9933 39.8153 42.892 39.8153 42.764C39.8153 42.636 39.7806 42.5373 39.7113 42.468C39.6419 42.3933 39.5433 42.356 39.4153 42.356ZM41.3575 43.5V42.868C41.3575 42.692 41.3441 42.54 41.3175 42.412C41.2961 42.2787 41.2695 42.1453 41.2375 42.012C41.2108 41.8787 41.1841 41.7267 41.1575 41.556C41.1361 41.38 41.1255 41.1613 41.1255 40.9C41.1255 40.5853 41.1735 40.3 41.2695 40.044C41.3655 39.788 41.5148 39.5827 41.7175 39.428C41.9255 39.2733 42.1921 39.1907 42.5175 39.18L43.1495 39.684L43.7815 39.18C44.0748 39.1907 44.3201 39.2493 44.5175 39.356C44.7148 39.4573 44.8641 39.6093 44.9655 39.812C45.0668 40.0093 45.1175 40.2573 45.1175 40.556V43.5H44.4295V40.508C44.4295 40.2893 44.3815 40.1187 44.2855 39.996C44.1895 39.868 44.0561 39.796 43.8855 39.78L43.1735 40.316H43.1255L42.4135 39.772C42.2481 39.788 42.1068 39.9027 41.9895 40.116C41.8721 40.324 41.8135 40.6227 41.8135 41.012C41.8135 41.2253 41.8215 41.404 41.8375 41.548C41.8588 41.692 41.8801 41.82 41.9015 41.932C41.9228 42.044 41.9415 42.1613 41.9575 42.284C41.9788 42.4013 41.9895 42.5453 41.9895 42.716V43.276L41.7335 43.044L42.8855 42.108C43.2001 42.108 43.4241 42.0387 43.5575 41.9C43.6908 41.7613 43.7575 41.604 43.7575 41.428H43.8615C43.8615 41.6307 43.7975 41.8147 43.6695 41.98C43.5468 42.14 43.3815 42.22 43.1735 42.22C42.9388 42.22 42.7415 42.1507 42.5815 42.012C42.4268 41.8733 42.3495 41.6813 42.3495 41.436C42.3495 41.1853 42.4268 40.9907 42.5815 40.852C42.7361 40.708 42.9335 40.636 43.1735 40.636C43.4241 40.636 43.6215 40.7133 43.7655 40.868C43.9148 41.0173 43.9895 41.2147 43.9895 41.46C43.9895 41.6573 43.9415 41.8253 43.8455 41.964C43.7495 42.0973 43.6188 42.2333 43.4535 42.372L42.1255 43.5H41.3575ZM43.1655 41.836C43.2935 41.836 43.3895 41.7987 43.4535 41.724C43.5228 41.644 43.5575 41.5453 43.5575 41.428C43.5575 41.3107 43.5228 41.2147 43.4535 41.14C43.3895 41.06 43.2935 41.02 43.1655 41.02C43.0375 41.02 42.9388 41.06 42.8695 41.14C42.8055 41.2147 42.7735 41.3107 42.7735 41.428C42.7735 41.5453 42.8055 41.644 42.8695 41.724C42.9388 41.7987 43.0375 41.836 43.1655 41.836ZM41.1701 38.716L41.1461 38.436C41.1461 38.0307 41.2608 37.716 41.4901 37.492C41.7248 37.2627 42.0448 37.148 42.4501 37.148C42.6314 37.148 42.7994 37.1747 42.9541 37.228C43.1141 37.276 43.2608 37.3453 43.3941 37.436C43.5328 37.5267 43.6554 37.6333 43.7621 37.756L43.6181 37.924V37.156H44.2021V38.26H44.4901V37.156H45.0741V38.716H41.1701ZM41.8021 38.26H43.6261C43.5408 38.1533 43.4394 38.0547 43.3221 37.964C43.2048 37.868 43.0741 37.7907 42.9301 37.732C42.7914 37.6733 42.6394 37.644 42.4741 37.644C42.2448 37.644 42.0741 37.7053 41.9621 37.828C41.8554 37.9453 41.8021 38.0893 41.8021 38.26ZM49.8406 40.684V42.268C49.8406 42.5613 49.7953 42.7987 49.7046 42.98C49.6139 43.1613 49.4699 43.2947 49.2726 43.38C49.0753 43.46 48.8166 43.5 48.4966 43.5H46.4166V41.412C46.4166 41.1293 46.4913 40.9133 46.6406 40.764C46.7899 40.6093 46.9953 40.532 47.2566 40.532C47.5126 40.532 47.7153 40.604 47.8646 40.748C48.0139 40.8867 48.0886 41.0813 48.0886 41.332C48.0886 41.5773 48.0113 41.7693 47.8566 41.908C47.7073 42.0467 47.5073 42.116 47.2566 42.116C46.9953 42.116 46.7979 42.0413 46.6646 41.892C46.5366 41.7427 46.4726 41.5533 46.4726 41.324H46.5766C46.5766 41.4093 46.6033 41.4973 46.6566 41.588C46.7153 41.6733 46.7846 41.748 46.8646 41.812C46.9446 41.8707 47.0246 41.9 47.1046 41.9V42.932H48.4886C48.7553 42.932 48.9313 42.876 49.0166 42.764C49.1073 42.652 49.1526 42.476 49.1526 42.236V40.756C49.1526 40.5373 49.1126 40.3533 49.0326 40.204C48.9579 40.0493 48.8353 39.932 48.6646 39.852C48.4993 39.772 48.2753 39.732 47.9926 39.732C47.7473 39.732 47.5046 39.7667 47.2646 39.836C47.0299 39.9053 46.8113 39.9933 46.6086 40.1L46.4166 39.548C46.6513 39.4253 46.9099 39.3293 47.1926 39.26C47.4806 39.1907 47.7659 39.156 48.0486 39.156C48.6513 39.156 49.0993 39.284 49.3926 39.54C49.6913 39.796 49.8406 40.1773 49.8406 40.684ZM47.2566 41.732C47.3846 41.732 47.4833 41.6973 47.5526 41.628C47.6219 41.5533 47.6566 41.452 47.6566 41.324C47.6566 41.196 47.6219 41.0973 47.5526 41.028C47.4833 40.9533 47.3846 40.916 47.2566 40.916C47.1286 40.916 47.0299 40.9533 46.9606 41.028C46.8913 41.0973 46.8566 41.196 46.8566 41.324C46.8566 41.4573 46.8913 41.5587 46.9606 41.628C47.0299 41.6973 47.1286 41.732 47.2566 41.732ZM54.4885 43.556C54.2325 43.556 54.0271 43.484 53.8725 43.34C53.7231 43.196 53.6485 43.0013 53.6485 42.756C53.6485 42.6493 53.6645 42.548 53.6965 42.452C53.7338 42.356 53.7818 42.2707 53.8405 42.196L53.9285 42.324C53.7311 42.356 53.5365 42.42 53.3445 42.516C53.1578 42.612 52.9925 42.7427 52.8485 42.908C52.7045 43.068 52.5925 43.2653 52.5125 43.5H51.8245V40.548C51.9045 40.548 51.9845 40.5187 52.0645 40.46C52.1445 40.396 52.2111 40.3213 52.2645 40.236C52.3231 40.1453 52.3525 40.0573 52.3525 39.972H52.4565C52.4565 40.2013 52.3898 40.3907 52.2565 40.54C52.1285 40.6893 51.9338 40.764 51.6725 40.764C51.4271 40.764 51.2271 40.6947 51.0725 40.556C50.9178 40.4173 50.8405 40.2253 50.8405 39.98C50.8405 39.7293 50.9151 39.5347 51.0645 39.396C51.2138 39.252 51.4165 39.18 51.6725 39.18C51.9338 39.18 52.1391 39.2573 52.2885 39.412C52.4378 39.5613 52.5125 39.7773 52.5125 40.06V42.828L52.3925 42.676C52.4991 42.5053 52.6325 42.364 52.7925 42.252C52.9578 42.1347 53.1365 42.0387 53.3285 41.964C53.5258 41.884 53.7205 41.82 53.9125 41.772C54.0351 41.74 54.1098 41.692 54.1365 41.628C54.1631 41.5587 54.1765 41.46 54.1765 41.332V39.236H54.8645V41.524C54.8645 41.5987 54.8565 41.6733 54.8405 41.748C54.8245 41.8173 54.7978 41.884 54.7605 41.948C54.7285 42.0067 54.6858 42.0627 54.6325 42.116L54.5205 41.924C54.6751 41.924 54.8111 41.9613 54.9285 42.036C55.0511 42.1053 55.1471 42.204 55.2165 42.332C55.2858 42.4547 55.3205 42.596 55.3205 42.756C55.3205 43.0013 55.2431 43.196 55.0885 43.34C54.9391 43.484 54.7391 43.556 54.4885 43.556ZM52.4165 42.588V42.5H52.5685V42.588H52.4165ZM51.6725 40.38C51.8005 40.38 51.8991 40.3453 51.9685 40.276C52.0378 40.2067 52.0725 40.1053 52.0725 39.972C52.0725 39.844 52.0378 39.7453 51.9685 39.676C51.8991 39.6013 51.8005 39.564 51.6725 39.564C51.5445 39.564 51.4458 39.6013 51.3765 39.676C51.3071 39.7453 51.2725 39.844 51.2725 39.972C51.2725 40.1 51.3071 40.2013 51.3765 40.276C51.4458 40.3453 51.5445 40.38 51.6725 40.38ZM54.4885 43.156C54.6111 43.156 54.7045 43.1187 54.7685 43.044C54.8378 42.964 54.8725 42.8653 54.8725 42.748C54.8725 42.62 54.8378 42.5133 54.7685 42.428C54.7045 42.3427 54.5925 42.3 54.4325 42.3C54.4058 42.3 54.3765 42.3027 54.3445 42.308C54.3178 42.308 54.2858 42.3133 54.2485 42.324C54.1951 42.3827 54.1551 42.4493 54.1285 42.524C54.1071 42.5933 54.0965 42.6653 54.0965 42.74C54.0965 42.8573 54.1311 42.956 54.2005 43.036C54.2751 43.116 54.3711 43.156 54.4885 43.156Z" fill="white"/>
</svg>
