<svg width="27" height="27" viewBox="0 0 27 27" fill="none" xmlns="http://www.w3.org/2000/svg">
<mask id="mask0_590_3195" style="mask-type:luminance" maskUnits="userSpaceOnUse" x="1" y="1" width="25" height="24">
<path d="M1.74023 1.30786H25.2598V24.8239H1.74023V1.30786Z" fill="white"/>
</mask>
<g mask="url(#mask0_590_3195)">
<mask id="path-2-inside-1_590_3195" fill="white">
<path d="M13.4965 24.0435C7.44258 24.0435 2.51719 19.1181 2.51719 13.0607C2.51719 7.00679 7.44258 2.0814 13.4965 2.0814C19.5539 2.0814 24.4793 7.00679 24.4793 13.0607C24.4793 19.1181 19.5539 24.0435 13.4965 24.0435ZM13.4965 1.30444C7.01367 1.30444 1.74023 6.57788 1.74023 13.0607C1.74023 19.5435 7.01367 24.8205 13.4965 24.8205C19.9793 24.8205 25.2562 19.5435 25.2562 13.0607C25.2562 6.57788 19.9793 1.30444 13.4965 1.30444Z"/>
</mask>
<path d="M13.4965 24.0435C7.44258 24.0435 2.51719 19.1181 2.51719 13.0607C2.51719 7.00679 7.44258 2.0814 13.4965 2.0814C19.5539 2.0814 24.4793 7.00679 24.4793 13.0607C24.4793 19.1181 19.5539 24.0435 13.4965 24.0435ZM13.4965 1.30444C7.01367 1.30444 1.74023 6.57788 1.74023 13.0607C1.74023 19.5435 7.01367 24.8205 13.4965 24.8205C19.9793 24.8205 25.2562 19.5435 25.2562 13.0607C25.2562 6.57788 19.9793 1.30444 13.4965 1.30444Z" fill="#100F0D"/>
<path d="M13.4965 24.0435V23.0435C7.99507 23.0435 3.51719 18.566 3.51719 13.0607H2.51719H1.51719C1.51719 19.6702 6.89008 25.0435 13.4965 25.0435V24.0435ZM2.51719 13.0607H3.51719C3.51719 7.55907 7.99486 3.0814 13.4965 3.0814V2.0814V1.0814C6.89029 1.0814 1.51719 6.4545 1.51719 13.0607H2.51719ZM13.4965 2.0814V3.0814C19.0018 3.0814 23.4793 7.55928 23.4793 13.0607H24.4793H25.4793C25.4793 6.45429 20.106 1.0814 13.4965 1.0814V2.0814ZM24.4793 13.0607H23.4793C23.4793 18.5658 19.0016 23.0435 13.4965 23.0435V24.0435V25.0435C20.1062 25.0435 25.4793 19.6704 25.4793 13.0607H24.4793ZM13.4965 1.30444V0.304443C6.46139 0.304443 0.740234 6.0256 0.740234 13.0607H1.74023H2.74023C2.74023 7.13017 7.56596 2.30444 13.4965 2.30444V1.30444ZM1.74023 13.0607H0.740234C0.740234 20.0954 6.461 25.8205 13.4965 25.8205V24.8205V23.8205C7.56635 23.8205 2.74023 18.9916 2.74023 13.0607H1.74023ZM13.4965 24.8205V25.8205C20.5316 25.8205 26.2562 20.0958 26.2562 13.0607H25.2562H24.2562C24.2562 18.9912 19.427 23.8205 13.4965 23.8205V24.8205ZM25.2562 13.0607H26.2562C26.2562 6.02521 20.5312 0.304443 13.4965 0.304443V1.30444V2.30444C19.4274 2.30444 24.2562 7.13055 24.2562 13.0607H25.2562Z" fill="black" mask="url(#path-2-inside-1_590_3195)"/>
</g>
<path d="M10.7261 13.6125C10.5714 13.6687 10.466 13.8164 10.466 13.9816V18.9457C10.4695 19.0441 10.4343 19.3605 10.2796 19.5152C10.2375 19.5609 10.1566 19.6207 9.98785 19.6207C9.52027 19.6207 9.49214 19.0687 9.48863 18.9598V13.9605C9.48863 13.7742 9.35503 13.6125 9.17574 13.5773C9.11246 13.5668 7.6148 13.2574 7.48472 11.7668C7.33355 10.0828 7.59722 7.18242 7.62183 6.91875C7.64996 6.79219 7.72378 6.64102 7.773 6.60586C7.82222 6.65859 7.87847 6.81328 7.89957 6.94687V10.7156C7.8855 10.9195 7.95933 11.1234 8.11402 11.2922C8.31441 11.5172 8.62027 11.6437 8.95074 11.6437C9.65035 11.6437 9.90699 11.1727 9.90699 10.8527V6.98203C9.9316 6.78867 10.016 6.58477 10.0757 6.54609C10.1285 6.60937 10.1777 6.8168 10.1777 6.98203V10.8879C10.1777 10.9441 10.1777 11.2465 10.4097 11.4855C10.5257 11.6016 10.7296 11.7387 11.0742 11.7387C11.4187 11.7387 11.6894 11.6437 11.8722 11.4539C12.0902 11.2289 12.0937 10.9688 12.0937 10.9301V6.96094C12.0937 6.95391 12.0937 6.94688 12.0937 6.94336C12.0867 6.79922 12.1218 6.54609 12.2168 6.44414C12.2378 6.42305 12.2695 6.40195 12.3398 6.40195C12.4066 6.40195 12.5086 6.68672 12.5191 6.94687C12.5191 6.98906 12.5683 11.373 12.5683 11.9109C12.5683 12.3187 12.0691 13.1414 10.7261 13.6125ZM12.3398 5.625C12.0691 5.625 11.83 5.72344 11.6543 5.90977C11.3062 6.27539 11.3132 6.85898 11.3168 6.96797V10.9406V10.9125C11.3132 10.9125 11.264 10.9617 11.0742 10.9617C10.9582 10.9617 10.9546 10.9371 10.9546 10.8984V6.98203C10.9546 6.37734 10.6839 5.76562 10.0828 5.76562C9.42183 5.76562 9.17574 6.49336 9.13003 6.92227C9.13003 6.93633 9.13003 6.94687 9.13003 6.96094V10.8316C9.11949 10.8422 9.06324 10.8668 8.95074 10.8668C8.78199 10.8668 8.6941 10.7895 8.67652 10.7543C8.67652 10.7473 8.67652 10.7402 8.67652 10.7332V6.92227C8.67652 6.9082 8.673 6.89062 8.673 6.87656C8.61324 6.35273 8.31441 5.82539 7.78355 5.82539C7.19293 5.82539 6.92222 6.43008 6.85543 6.78867C6.85543 6.79922 6.85191 6.81328 6.85191 6.82383C6.83785 6.95391 6.54605 10.0055 6.71128 11.8371C6.83785 13.2891 7.94175 14.0062 8.71519 14.2594V18.9598C8.71519 19.5398 9.05269 20.3977 9.98785 20.3977C10.3253 20.3977 10.6207 20.2816 10.8351 20.0602C11.2464 19.6418 11.2464 19.0055 11.2429 18.9387V14.2488C12.6878 13.6582 13.3453 12.6422 13.3453 11.9109C13.3453 11.3695 13.2961 7.11562 13.2925 6.93281C13.2785 6.28242 12.9796 5.625 12.3398 5.625Z" fill="#100F0D"/>
<path d="M17.8171 13.4016C17.68 13.4649 17.5921 13.602 17.5921 13.7567V19.1989C17.5921 19.2129 17.5921 19.227 17.5921 19.2375C17.5992 19.3008 17.5886 19.5118 17.4867 19.6243C17.4656 19.6489 17.3953 19.7227 17.1808 19.7227C16.6957 19.7227 16.548 19.3711 16.5093 19.2446V13.7532C16.5093 13.602 16.4214 13.4649 16.2843 13.4016C15.2472 12.92 14.5476 11.5735 14.5476 10.0547C14.5476 8.10356 15.6726 6.5145 17.0507 6.5145C18.4324 6.5145 19.5574 8.10356 19.5574 10.0547C19.5574 11.577 18.8578 12.9235 17.8171 13.4016ZM17.0507 5.73755C15.2437 5.73755 13.7742 7.67466 13.7742 10.0547C13.7742 11.7633 14.5511 13.3102 15.7324 13.9887V19.2938C15.7324 19.3184 15.7359 19.3465 15.7429 19.3711C15.8203 19.7614 16.2246 20.4997 17.1808 20.4997C17.6449 20.4997 17.9191 20.3063 18.0667 20.1411C18.3867 19.786 18.3761 19.3079 18.3656 19.1848V13.9922C19.5503 13.3102 20.3308 11.7668 20.3308 10.0547C20.3308 7.67466 18.8613 5.73755 17.0507 5.73755Z" fill="#100F0D"/>
</svg>
