<svg width="80" height="56" viewBox="0 0 80 56" fill="none" xmlns="http://www.w3.org/2000/svg">
<path d="M37 26.5H42.5M37 21.5H47M37 16.5H47M33.002 26.5V26.502L33 26.502V26.5H33.002ZM33.002 21.5V21.502L33 21.502V21.5H33.002ZM33.002 16.5V16.502L33 16.502V16.5H33.002Z" stroke="white" stroke-width="2" stroke-linecap="round" stroke-linejoin="round"/>
<path d="M46.5 27.125V29H48.375M46.5 32.375C44.636 32.375 43.125 30.864 43.125 29C43.125 27.136 44.636 25.625 46.5 25.625C48.364 25.625 49.875 27.136 49.875 29C49.875 30.864 48.364 32.375 46.5 32.375Z" stroke="white" stroke-linecap="round" stroke-linejoin="round"/>
<path d="M33.4317 37.7V42.268C33.4317 42.7053 33.3277 43.02 33.1197 43.212C32.9117 43.404 32.5677 43.5 32.0877 43.5H30.1917V40.548C30.2717 40.548 30.3517 40.5187 30.4317 40.46C30.5117 40.396 30.5783 40.3213 30.6317 40.236C30.6903 40.1453 30.7197 40.0573 30.7197 39.972H30.8237C30.8237 40.2013 30.757 40.3907 30.6237 40.54C30.4957 40.6893 30.301 40.764 30.0397 40.764C29.7943 40.764 29.5943 40.6947 29.4397 40.556C29.285 40.4173 29.2077 40.2253 29.2077 39.98C29.2077 39.7293 29.2823 39.5347 29.4317 39.396C29.581 39.252 29.7837 39.18 30.0397 39.18C30.301 39.18 30.5063 39.2573 30.6557 39.412C30.805 39.5613 30.8797 39.7773 30.8797 40.06V43.244L30.5677 42.924H32.0797C32.3463 42.924 32.5223 42.868 32.6077 42.756C32.6983 42.644 32.7437 42.468 32.7437 42.228V37.7H33.4317ZM30.0397 40.38C30.1677 40.38 30.2663 40.3453 30.3357 40.276C30.405 40.2067 30.4397 40.1053 30.4397 39.972C30.4397 39.844 30.405 39.7453 30.3357 39.676C30.2663 39.6013 30.1677 39.564 30.0397 39.564C29.9117 39.564 29.813 39.6013 29.7437 39.676C29.6743 39.7453 29.6397 39.844 29.6397 39.972C29.6397 40.1 29.6743 40.2013 29.7437 40.276C29.813 40.3453 29.9117 40.38 30.0397 40.38ZM37.3451 41.364V42.676C37.3451 42.9533 37.2704 43.1693 37.1211 43.324C36.9718 43.4787 36.7664 43.556 36.5051 43.556C36.2491 43.556 36.0464 43.484 35.8971 43.34C35.7478 43.196 35.6731 43.0013 35.6731 42.756C35.6731 42.5107 35.7504 42.3187 35.9051 42.18C36.0598 42.0413 36.2598 41.972 36.5051 41.972C36.7664 41.972 36.9611 42.0467 37.0891 42.196C37.2224 42.3453 37.2891 42.5347 37.2891 42.764H37.1851C37.1851 42.6787 37.1584 42.5933 37.1051 42.508C37.0518 42.4173 36.9824 42.3427 36.8971 42.284C36.8171 42.22 36.7371 42.188 36.6571 42.188V41.548C36.6571 41.3987 36.6251 41.2893 36.5611 41.22C36.4971 41.1507 36.3798 41.1107 36.2091 41.1L34.4651 40.972V40.372C34.4651 39.9933 34.5798 39.7 34.8091 39.492C35.0438 39.284 35.3638 39.18 35.7691 39.18C35.9504 39.18 36.0998 39.188 36.2171 39.204C36.3344 39.22 36.4438 39.2387 36.5451 39.26C36.6464 39.276 36.7611 39.284 36.8891 39.284C37.0011 39.284 37.1104 39.2813 37.2171 39.276C37.3291 39.2653 37.4331 39.2493 37.5291 39.228L37.6171 39.804C37.5158 39.8307 37.4144 39.8493 37.3131 39.86C37.2118 39.8653 37.0971 39.868 36.9691 39.868C36.7984 39.868 36.6118 39.852 36.4091 39.82C36.2118 39.7827 36.0331 39.764 35.8731 39.764C35.6278 39.764 35.4464 39.8147 35.3291 39.916C35.2118 40.012 35.1531 40.164 35.1531 40.372V40.46L36.5051 40.572C36.7024 40.588 36.8624 40.628 36.9851 40.692C37.1078 40.756 37.1984 40.844 37.2571 40.956C37.3158 41.068 37.3451 41.204 37.3451 41.364ZM36.5051 42.356C36.3771 42.356 36.2784 42.3933 36.2091 42.468C36.1398 42.5373 36.1051 42.636 36.1051 42.764C36.1051 42.892 36.1398 42.9933 36.2091 43.068C36.2784 43.1373 36.3771 43.172 36.5051 43.172C36.6331 43.172 36.7318 43.1373 36.8011 43.068C36.8704 42.9933 36.9051 42.892 36.9051 42.764C36.9051 42.6307 36.8704 42.5293 36.8011 42.46C36.7318 42.3907 36.6331 42.356 36.5051 42.356ZM39.8792 40.964C39.6126 40.964 39.3752 40.9267 39.1672 40.852C38.9646 40.7773 38.8046 40.6707 38.6872 40.532C38.5752 40.388 38.5192 40.22 38.5192 40.028C38.5192 39.8253 38.5859 39.6573 38.7192 39.524C38.8579 39.3853 39.0472 39.316 39.2872 39.316C39.5059 39.316 39.6846 39.3773 39.8232 39.5C39.9672 39.6227 40.0392 39.7853 40.0392 39.988C40.0392 40.0573 40.0259 40.132 39.9992 40.212C39.9779 40.292 39.9406 40.3667 39.8872 40.436C39.8392 40.5 39.7726 40.556 39.6872 40.604L39.6152 40.412C39.6686 40.4227 39.7246 40.4333 39.7832 40.444C39.8419 40.4547 39.9059 40.46 39.9752 40.46C40.2312 40.46 40.4579 40.388 40.6552 40.244C40.8526 40.0947 41.0126 39.8867 41.1352 39.62L41.6712 39.908C41.4899 40.26 41.2526 40.524 40.9592 40.7C40.6712 40.876 40.3112 40.964 39.8792 40.964ZM39.2872 40.324C39.3939 40.324 39.4792 40.2947 39.5432 40.236C39.6072 40.1773 39.6392 40.0947 39.6392 39.988C39.6392 39.8813 39.6072 39.7987 39.5432 39.74C39.4792 39.676 39.3939 39.644 39.2872 39.644C39.1806 39.644 39.0952 39.676 39.0312 39.74C38.9726 39.7987 38.9432 39.8813 38.9432 39.988C38.9432 40.0947 38.9726 40.1773 39.0312 40.236C39.0952 40.2947 39.1806 40.324 39.2872 40.324ZM39.8792 43.212C39.6126 43.212 39.3752 43.1747 39.1672 43.1C38.9646 43.02 38.8046 42.9107 38.6872 42.772C38.5752 42.628 38.5192 42.4627 38.5192 42.276C38.5192 42.0733 38.5859 41.9053 38.7192 41.772C38.8579 41.6333 39.0472 41.564 39.2872 41.564C39.5059 41.564 39.6846 41.6253 39.8232 41.748C39.9672 41.8707 40.0392 42.0333 40.0392 42.236C40.0392 42.3053 40.0259 42.38 39.9992 42.46C39.9779 42.54 39.9406 42.6147 39.8872 42.684C39.8392 42.748 39.7726 42.804 39.6872 42.852L39.6152 42.66C39.6686 42.6707 39.7246 42.6813 39.7832 42.692C39.8419 42.7027 39.9059 42.708 39.9752 42.708C40.2312 42.708 40.4579 42.636 40.6552 42.492C40.8526 42.3427 41.0126 42.1347 41.1352 41.868L41.6712 42.156C41.4899 42.508 41.2526 42.772 40.9592 42.948C40.6712 43.124 40.3112 43.212 39.8792 43.212ZM39.2872 42.572C39.3939 42.572 39.4792 42.5427 39.5432 42.484C39.6072 42.4253 39.6392 42.3427 39.6392 42.236C39.6392 42.1293 39.6072 42.0467 39.5432 41.988C39.4792 41.924 39.3939 41.892 39.2872 41.892C39.1806 41.892 39.0952 41.924 39.0312 41.988C38.9726 42.0467 38.9432 42.1293 38.9432 42.236C38.9432 42.3427 38.9726 42.4253 39.0312 42.484C39.0952 42.5427 39.1806 42.572 39.2872 42.572ZM45.2687 40.66V42.676C45.2687 42.9533 45.194 43.1693 45.0447 43.324C44.8953 43.4787 44.69 43.556 44.4287 43.556C44.1727 43.556 43.97 43.484 43.8207 43.34C43.6713 43.196 43.5967 43.0013 43.5967 42.756C43.5967 42.5107 43.674 42.3187 43.8287 42.18C43.9833 42.0413 44.1833 41.972 44.4287 41.972C44.69 41.972 44.8847 42.0467 45.0127 42.196C45.146 42.3453 45.2127 42.5347 45.2127 42.764H45.1087C45.1087 42.6787 45.082 42.5933 45.0287 42.508C44.9753 42.4173 44.906 42.3427 44.8207 42.284C44.7407 42.22 44.6607 42.188 44.5807 42.188V40.732C44.5807 40.4067 44.514 40.1587 44.3807 39.988C44.2527 39.8173 44.0073 39.732 43.6447 39.732C43.426 39.732 43.2127 39.7613 43.0047 39.82C42.802 39.8733 42.6207 39.9373 42.4607 40.012L42.2367 39.452C42.402 39.372 42.6047 39.3027 42.8447 39.244C43.0847 39.1853 43.3487 39.156 43.6367 39.156C44.0153 39.156 44.3247 39.212 44.5647 39.324C44.8047 39.4307 44.9807 39.596 45.0927 39.82C45.21 40.044 45.2687 40.324 45.2687 40.66ZM44.4287 42.356C44.3007 42.356 44.202 42.3933 44.1327 42.468C44.0633 42.5373 44.0287 42.636 44.0287 42.764C44.0287 42.892 44.0633 42.9933 44.1327 43.068C44.202 43.1373 44.3007 43.172 44.4287 43.172C44.5567 43.172 44.6553 43.1373 44.7247 43.068C44.794 42.9933 44.8287 42.892 44.8287 42.764C44.8287 42.6307 44.794 42.5293 44.7247 42.46C44.6553 42.3907 44.5567 42.356 44.4287 42.356ZM44.2582 38.756C43.9862 38.756 43.7408 38.7213 43.5222 38.652C43.3035 38.5827 43.1302 38.4787 43.0022 38.34C42.8742 38.196 42.8102 38.012 42.8102 37.788C42.8102 37.58 42.8768 37.404 43.0102 37.26C43.1435 37.1107 43.3328 37.036 43.5782 37.036C43.7968 37.036 43.9808 37.1027 44.1302 37.236C44.2795 37.3693 44.3542 37.5453 44.3542 37.764C44.3542 37.86 44.3382 37.9507 44.3062 38.036C44.2795 38.1213 44.2368 38.1987 44.1782 38.268C44.1248 38.3373 44.0555 38.3987 43.9702 38.452L44.0422 38.204C44.0848 38.22 44.1275 38.2333 44.1702 38.244C44.2182 38.2493 44.2715 38.252 44.3302 38.252C44.5915 38.252 44.8368 38.18 45.0662 38.036C45.3008 37.8867 45.4955 37.6787 45.6502 37.412L46.1862 37.7C46.0208 38.02 45.7728 38.276 45.4422 38.468C45.1115 38.66 44.7168 38.756 44.2582 38.756ZM43.5782 38.124C43.6848 38.124 43.7648 38.092 43.8182 38.028C43.8768 37.9587 43.9062 37.8707 43.9062 37.764C43.9062 37.6573 43.8768 37.5693 43.8182 37.5C43.7648 37.4307 43.6848 37.396 43.5782 37.396C43.4768 37.396 43.3968 37.4307 43.3382 37.5C43.2848 37.5693 43.2582 37.6573 43.2582 37.764C43.2582 37.8707 43.2848 37.9587 43.3382 38.028C43.3968 38.092 43.4768 38.124 43.5782 38.124ZM46.7012 43.5V42.868C46.7012 42.692 46.6879 42.54 46.6612 42.412C46.6399 42.2787 46.6132 42.1453 46.5812 42.012C46.5546 41.8787 46.5279 41.7267 46.5012 41.556C46.4799 41.38 46.4692 41.1613 46.4692 40.9C46.4692 40.5853 46.5172 40.3 46.6132 40.044C46.7092 39.788 46.8586 39.5827 47.0612 39.428C47.2692 39.2733 47.5359 39.1907 47.8612 39.18L48.4932 39.684L49.1252 39.18C49.4186 39.1907 49.6639 39.2493 49.8612 39.356C50.0586 39.4573 50.2079 39.6093 50.3092 39.812C50.4106 40.0093 50.4612 40.2573 50.4612 40.556V43.5H49.7732V40.508C49.7732 40.2893 49.7252 40.1187 49.6292 39.996C49.5332 39.868 49.3999 39.796 49.2292 39.78L48.5172 40.316H48.4692L47.7572 39.772C47.5919 39.788 47.4506 39.9027 47.3332 40.116C47.2159 40.324 47.1572 40.6227 47.1572 41.012C47.1572 41.2253 47.1652 41.404 47.1812 41.548C47.2026 41.692 47.2239 41.82 47.2452 41.932C47.2666 42.044 47.2852 42.1613 47.3012 42.284C47.3226 42.4013 47.3332 42.5453 47.3332 42.716V43.276L47.0772 43.044L48.2292 42.108C48.5439 42.108 48.7679 42.0387 48.9012 41.9C49.0346 41.7613 49.1012 41.604 49.1012 41.428H49.2052C49.2052 41.6307 49.1412 41.8147 49.0132 41.98C48.8906 42.14 48.7252 42.22 48.5172 42.22C48.2826 42.22 48.0852 42.1507 47.9252 42.012C47.7706 41.8733 47.6932 41.6813 47.6932 41.436C47.6932 41.1853 47.7706 40.9907 47.9252 40.852C48.0799 40.708 48.2772 40.636 48.5172 40.636C48.7679 40.636 48.9652 40.7133 49.1092 40.868C49.2586 41.0173 49.3332 41.2147 49.3332 41.46C49.3332 41.6573 49.2852 41.8253 49.1892 41.964C49.0932 42.0973 48.9626 42.2333 48.7972 42.372L47.4692 43.5H46.7012ZM48.5092 41.836C48.6372 41.836 48.7332 41.7987 48.7972 41.724C48.8666 41.644 48.9012 41.5453 48.9012 41.428C48.9012 41.3107 48.8666 41.2147 48.7972 41.14C48.7332 41.06 48.6372 41.02 48.5092 41.02C48.3812 41.02 48.2826 41.06 48.2132 41.14C48.1492 41.2147 48.1172 41.3107 48.1172 41.428C48.1172 41.5453 48.1492 41.644 48.2132 41.724C48.2826 41.7987 48.3812 41.836 48.5092 41.836ZM46.8576 38.716L46.8336 38.436C46.8336 38.0307 46.9723 37.716 47.2496 37.492C47.5323 37.2627 47.9029 37.148 48.3616 37.148C48.6816 37.148 48.9723 37.204 49.2336 37.316C49.4949 37.428 49.7243 37.5747 49.9216 37.756C50.1243 37.932 50.2896 38.1187 50.4176 38.316L50.3536 38.716H46.8576ZM47.4896 38.26H49.5696C49.5003 38.148 49.4016 38.0467 49.2736 37.956C49.1509 37.86 49.0096 37.7853 48.8496 37.732C48.6949 37.6733 48.5323 37.644 48.3616 37.644C48.0843 37.644 47.8683 37.7053 47.7136 37.828C47.5643 37.9453 47.4896 38.0893 47.4896 38.26Z" fill="white"/>
</svg>
