<svg width="36" height="35" viewBox="0 0 36 35" fill="none" xmlns="http://www.w3.org/2000/svg">
<path d="M17.9998 2.91675C14.1835 2.92737 10.5227 4.43062 7.80025 7.10508V4.37508C7.80025 3.98831 7.64661 3.61737 7.37312 3.34388C7.09963 3.07039 6.72869 2.91675 6.34192 2.91675C5.95515 2.91675 5.58421 3.07039 5.31072 3.34388C5.03723 3.61737 4.88359 3.98831 4.88359 4.37508V10.9376C4.88359 11.3244 5.03723 11.6953 5.31072 11.9688C5.58421 12.2423 5.95515 12.3959 6.34192 12.3959H12.9044C13.2912 12.3959 13.6621 12.2423 13.9356 11.9688C14.2091 11.6953 14.3628 11.3244 14.3628 10.9376C14.3628 10.5508 14.2091 10.1799 13.9356 9.90638C13.6621 9.63289 13.2912 9.47925 12.9044 9.47925H9.56775C11.4387 7.52655 13.9314 6.28643 16.6174 5.97197C19.3035 5.65751 22.0152 6.28834 24.2866 7.75607C26.558 9.22381 28.2474 11.4368 29.0644 14.0148C29.8814 16.5928 29.775 19.3749 28.7636 21.883C27.7521 24.3911 25.8987 26.4687 23.5218 27.7587C21.145 29.0487 18.393 29.4707 15.7389 28.952C13.0847 28.4334 10.694 27.0066 8.97754 24.9167C7.2611 22.8269 6.3261 20.2045 6.33317 17.5001C6.33317 17.1133 6.17953 16.7424 5.90603 16.4689C5.63254 16.1954 5.26161 16.0417 4.87484 16.0417C4.48806 16.0417 4.11713 16.1954 3.84364 16.4689C3.57015 16.7424 3.4165 17.1133 3.4165 17.5001C3.4165 20.3844 4.2718 23.2039 5.87424 25.6021C7.47668 28.0004 9.75428 29.8695 12.419 30.9733C15.0838 32.0771 18.016 32.3659 20.8449 31.8032C23.6738 31.2405 26.2723 29.8516 28.3118 27.8121C30.3513 25.7725 31.7403 23.174 32.303 20.3451C32.8657 17.5163 32.5769 14.584 31.4731 11.9193C30.3693 9.25453 28.5001 6.97692 26.1019 5.37448C23.7037 3.77205 20.8841 2.91675 17.9998 2.91675Z" fill="white"/>
<path d="M20.9165 18.9584H17.9998C17.6131 18.9584 17.2421 18.8048 16.9686 18.5313C16.6951 18.2578 16.5415 17.8869 16.5415 17.5001V13.1251C16.5415 12.7383 16.6951 12.3674 16.9686 12.0939C17.2421 11.8204 17.6131 11.6667 17.9998 11.6667C18.3866 11.6667 18.7575 11.8204 19.031 12.0939C19.3045 12.3674 19.4582 12.7383 19.4582 13.1251V16.0417H20.9165C21.3033 16.0417 21.6742 16.1954 21.9477 16.4689C22.2212 16.7424 22.3748 17.1133 22.3748 17.5001C22.3748 17.8869 22.2212 18.2578 21.9477 18.5313C21.6742 18.8048 21.3033 18.9584 20.9165 18.9584Z" fill="white"/>
<path opacity="0.5" d="M17.9998 5.83325C16.4208 5.83868 14.8592 6.16461 13.4098 6.7913C11.9605 7.41798 10.6534 8.33238 9.56775 9.47909H12.9044C13.2912 9.47909 13.6621 9.63273 13.9356 9.90622C14.2091 10.1797 14.3628 10.5506 14.3628 10.9374C14.3628 11.3242 14.2091 11.6951 13.9356 11.9686C13.6621 12.2421 13.2912 12.3958 12.9044 12.3958H6.34192C5.98624 12.3933 5.64398 12.2596 5.38077 12.0204C5.11757 11.7811 4.95195 11.4531 4.91567 11.0993C3.9304 13.0892 3.41738 15.2795 3.4165 17.4999C3.4165 17.1131 3.57015 16.7422 3.84364 16.4687C4.11713 16.1952 4.48806 16.0416 4.87484 16.0416C5.26161 16.0416 5.63254 16.1952 5.90603 16.4687C6.17953 16.7422 6.33317 17.1131 6.33317 17.4999C6.33317 19.8074 7.01741 22.063 8.29936 23.9816C9.58131 25.9001 11.4034 27.3955 13.5352 28.2785C15.667 29.1615 18.0128 29.3926 20.2759 28.9424C22.539 28.4923 24.6178 27.3811 26.2494 25.7495C27.881 24.1179 28.9922 22.0391 29.4423 19.776C29.8925 17.5129 29.6615 15.1671 28.7784 13.0353C27.8954 10.9035 26.4001 9.08139 24.4815 7.79944C22.5629 6.51749 20.3073 5.83325 17.9998 5.83325ZM20.9165 18.9583H17.9998C17.6131 18.9583 17.2421 18.8046 16.9686 18.5311C16.6952 18.2576 16.5415 17.8867 16.5415 17.4999V13.1249C16.5415 12.7381 16.6952 12.3672 16.9686 12.0937C17.2421 11.8202 17.6131 11.6666 17.9998 11.6666C18.3866 11.6666 18.7575 11.8202 19.031 12.0937C19.3045 12.3672 19.4582 12.7381 19.4582 13.1249V16.0416H20.9165C21.3033 16.0416 21.6742 16.1952 21.9477 16.4687C22.2212 16.7422 22.3748 17.1131 22.3748 17.4999C22.3748 17.8867 22.2212 18.2576 21.9477 18.5311C21.6742 18.8046 21.3033 18.9583 20.9165 18.9583Z" fill="white"/>
</svg>
