<svg width="36" height="35" viewBox="0 0 36 35" fill="none" xmlns="http://www.w3.org/2000/svg">
<path d="M13.6248 24.7916H21.6457M13.6248 17.4999H28.2082M13.6248 10.2083H28.2082M7.79435 24.7916V24.7945L7.7915 24.7944V24.7916H7.79435ZM7.79435 17.4999V17.5028L7.7915 17.5028V17.4999H7.79435ZM7.79435 10.2083V10.2112L7.7915 10.2111V10.2083H7.79435Z" stroke="white" stroke-width="2" stroke-linecap="round" stroke-linejoin="round"/>
<path d="M27.479 18.8281V21.5625H30.2134M27.479 26.4844C24.7607 26.4844 22.5571 24.2808 22.5571 21.5625C22.5571 18.8442 24.7607 16.6406 27.479 16.6406C30.1973 16.6406 32.4009 18.8442 32.4009 21.5625C32.4009 24.2808 30.1973 26.4844 27.479 26.4844Z" stroke="white" stroke-linecap="round" stroke-linejoin="round"/>
</svg>
