<svg width="36" height="35" viewBox="0 0 36 35" fill="none" xmlns="http://www.w3.org/2000/svg">
<path d="M15.0832 29.1668H6.33317V16.7012C6.33317 15.922 6.33317 15.5321 6.42792 15.1695C6.51189 14.8482 6.65078 14.5441 6.83732 14.2693C7.04781 13.9592 7.34035 13.7021 7.9268 13.189L14.9291 7.06195C16.0163 6.11068 16.5599 5.63502 17.1721 5.45397C17.712 5.29432 18.2874 5.29432 18.8273 5.45397C19.44 5.63515 19.9844 6.11127 21.0732 7.06397L28.0732 13.189C28.6596 13.7021 28.9523 13.9593 29.1628 14.2693C29.3493 14.5441 29.4871 14.8482 29.5711 15.1695C29.6658 15.5321 29.6665 15.922 29.6665 16.7012V29.1668H20.9165H15.0832Z" fill="#D9D9D9"/>
<path d="M3.4165 29.1668H6.33317M6.33317 29.1668H15.0832M6.33317 29.1668V16.7012C6.33317 15.922 6.33317 15.5321 6.42792 15.1695C6.51189 14.8482 6.65078 14.5441 6.83732 14.2693C7.04781 13.9592 7.34035 13.7021 7.9268 13.189L14.9291 7.06195C16.0163 6.11068 16.5599 5.63502 17.1721 5.45397C17.712 5.29432 18.2874 5.29432 18.8273 5.45397C19.44 5.63515 19.9844 6.11127 21.0732 7.06397L28.0732 13.189C28.6596 13.7021 28.9523 13.9593 29.1627 14.2693C29.3493 14.5441 29.4871 14.8482 29.5711 15.1695C29.6658 15.5321 29.6665 15.922 29.6665 16.7012V29.1668M15.0832 29.1668H20.9165M15.0832 29.1668V23.3335C15.0832 21.7227 16.389 20.4168 17.9998 20.4168C19.6107 20.4168 20.9165 21.7227 20.9165 23.3335V29.1668M20.9165 29.1668H29.6665M29.6665 29.1668H32.5832" stroke="black" stroke-width="2" stroke-linecap="round" stroke-linejoin="round"/>
</svg>
