<svg width="80" height="56" viewBox="0 0 80 56" fill="none" xmlns="http://www.w3.org/2000/svg">
<path d="M30 29.5001H32M32 29.5001H38M32 29.5001V20.9522C32 20.4179 32 20.1506 32.065 19.9019C32.1225 19.6816 32.2178 19.4731 32.3457 19.2846C32.49 19.072 32.6906 18.8957 33.0928 18.5438L37.8944 14.3424C38.6398 13.6901 39.0126 13.364 39.4324 13.2398C39.8026 13.1303 40.1972 13.1303 40.5674 13.2398C40.9875 13.3641 41.3608 13.6905 42.1074 14.3438L46.9074 18.5438C47.3095 18.8957 47.5102 19.072 47.6546 19.2846C47.7825 19.4731 47.877 19.6816 47.9346 19.9019C47.9995 20.1506 48 20.4179 48 20.9522V29.5001M38 29.5001H42M38 29.5001V25.5001C38 24.3955 38.8954 23.5001 40 23.5001C41.1046 23.5001 42 24.3955 42 25.5001V29.5001M42 29.5001H48M48 29.5001H50" stroke="white" stroke-width="2" stroke-linecap="round" stroke-linejoin="round"/>
<path d="M27.4202 42.052H27.5562V42.156H27.4202V42.052ZM27.5242 41.484C27.5242 41.7613 27.5082 42.036 27.4762 42.308C27.4442 42.58 27.4069 42.8387 27.3642 43.084H27.2602C27.2709 42.828 27.3322 42.556 27.4442 42.268C27.5562 41.9747 27.7029 41.7 27.8842 41.444C28.0655 41.188 28.2629 40.98 28.4762 40.82C28.6949 40.6547 28.9135 40.572 29.1322 40.572L29.1402 40.732C29.0015 40.732 28.8815 40.692 28.7802 40.612C28.6789 40.5267 28.5989 40.4253 28.5402 40.308C28.4869 40.1907 28.4602 40.076 28.4602 39.964C28.4602 39.7187 28.5429 39.5267 28.7082 39.388C28.8789 39.2493 29.0895 39.18 29.3402 39.18C29.5909 39.18 29.7989 39.2493 29.9642 39.388C30.1349 39.5267 30.2202 39.7187 30.2202 39.964C30.2202 40.0813 30.1855 40.2013 30.1162 40.324C30.0469 40.4467 29.9535 40.5507 29.8362 40.636C29.7189 40.716 29.5882 40.756 29.4442 40.756V40.564C29.6042 40.564 29.7349 40.6013 29.8362 40.676C29.9429 40.7507 30.0202 40.844 30.0682 40.956C30.1215 41.068 30.1482 41.1827 30.1482 41.3V43.5H29.4602V41.332C29.4602 41.2413 29.4415 41.1747 29.4042 41.132C29.3669 41.084 29.3055 41.06 29.2202 41.06C29.0975 41.06 28.9295 41.1507 28.7162 41.332C28.5082 41.508 28.2922 41.7773 28.0682 42.14C27.8442 42.4973 27.6495 42.9507 27.4842 43.5H26.8362V40.548C26.9162 40.548 26.9962 40.5187 27.0762 40.46C27.1562 40.396 27.2229 40.3213 27.2762 40.236C27.3349 40.1453 27.3642 40.0573 27.3642 39.972H27.4682C27.4682 40.2013 27.4015 40.3907 27.2682 40.54C27.1402 40.6893 26.9455 40.764 26.6842 40.764C26.4389 40.764 26.2389 40.6947 26.0842 40.556C25.9295 40.4173 25.8522 40.2253 25.8522 39.98C25.8522 39.7293 25.9269 39.5347 26.0762 39.396C26.2255 39.252 26.4282 39.18 26.6842 39.18C26.9455 39.18 27.1509 39.2573 27.3002 39.412C27.4495 39.5613 27.5242 39.7773 27.5242 40.06V41.484ZM26.6842 40.38C26.8122 40.38 26.9109 40.3453 26.9802 40.276C27.0495 40.2067 27.0842 40.1053 27.0842 39.972C27.0842 39.844 27.0495 39.7453 26.9802 39.676C26.9109 39.6013 26.8122 39.564 26.6842 39.564C26.5562 39.564 26.4575 39.6013 26.3882 39.676C26.3189 39.7453 26.2842 39.844 26.2842 39.972C26.2842 40.1 26.3189 40.2013 26.3882 40.276C26.4575 40.3453 26.5562 40.38 26.6842 40.38ZM28.9402 39.964C28.9402 40.0653 28.9749 40.156 29.0442 40.236C29.1189 40.316 29.2175 40.38 29.3402 40.428C29.4629 40.38 29.5589 40.316 29.6282 40.236C29.7029 40.156 29.7402 40.0653 29.7402 39.964C29.7402 39.8573 29.7029 39.7693 29.6282 39.7C29.5535 39.6307 29.4575 39.596 29.3402 39.596C29.2229 39.596 29.1269 39.6307 29.0522 39.7C28.9775 39.7693 28.9402 39.8573 28.9402 39.964ZM34.7971 43.556C34.5411 43.556 34.3357 43.484 34.1811 43.34C34.0317 43.196 33.9571 43.0013 33.9571 42.756C33.9571 42.6493 33.9731 42.548 34.0051 42.452C34.0424 42.356 34.0904 42.2707 34.1491 42.196L34.2371 42.324C34.0397 42.356 33.8451 42.42 33.6531 42.516C33.4664 42.612 33.3011 42.7427 33.1571 42.908C33.0131 43.068 32.9011 43.2653 32.8211 43.5H32.1331V40.548C32.2131 40.548 32.2931 40.5187 32.3731 40.46C32.4531 40.396 32.5197 40.3213 32.5731 40.236C32.6317 40.1453 32.6611 40.0573 32.6611 39.972H32.7651C32.7651 40.2013 32.6984 40.3907 32.5651 40.54C32.4371 40.6893 32.2424 40.764 31.9811 40.764C31.7357 40.764 31.5357 40.6947 31.3811 40.556C31.2264 40.4173 31.1491 40.2253 31.1491 39.98C31.1491 39.7293 31.2237 39.5347 31.3731 39.396C31.5224 39.252 31.7251 39.18 31.9811 39.18C32.2424 39.18 32.4477 39.2573 32.5971 39.412C32.7464 39.5613 32.8211 39.7773 32.8211 40.06V42.828L32.7011 42.676C32.8077 42.5053 32.9411 42.364 33.1011 42.252C33.2664 42.1347 33.4451 42.0387 33.6371 41.964C33.8344 41.884 34.0291 41.82 34.2211 41.772C34.3437 41.74 34.4184 41.692 34.4451 41.628C34.4717 41.5587 34.4851 41.46 34.4851 41.332V39.236H35.1731V41.524C35.1731 41.5987 35.1651 41.6733 35.1491 41.748C35.1331 41.8173 35.1064 41.884 35.0691 41.948C35.0371 42.0067 34.9944 42.0627 34.9411 42.116L34.8291 41.924C34.9837 41.924 35.1197 41.9613 35.2371 42.036C35.3597 42.1053 35.4557 42.204 35.5251 42.332C35.5944 42.4547 35.6291 42.596 35.6291 42.756C35.6291 43.0013 35.5517 43.196 35.3971 43.34C35.2477 43.484 35.0477 43.556 34.7971 43.556ZM32.7251 42.588V42.5H32.8771V42.588H32.7251ZM31.9811 40.38C32.1091 40.38 32.2077 40.3453 32.2771 40.276C32.3464 40.2067 32.3811 40.1053 32.3811 39.972C32.3811 39.844 32.3464 39.7453 32.2771 39.676C32.2077 39.6013 32.1091 39.564 31.9811 39.564C31.8531 39.564 31.7544 39.6013 31.6851 39.676C31.6157 39.7453 31.5811 39.844 31.5811 39.972C31.5811 40.1 31.6157 40.2013 31.6851 40.276C31.7544 40.3453 31.8531 40.38 31.9811 40.38ZM34.7971 43.156C34.9197 43.156 35.0131 43.1187 35.0771 43.044C35.1464 42.964 35.1811 42.8653 35.1811 42.748C35.1811 42.62 35.1464 42.5133 35.0771 42.428C35.0131 42.3427 34.9011 42.3 34.7411 42.3C34.7144 42.3 34.6851 42.3027 34.6531 42.308C34.6264 42.308 34.5944 42.3133 34.5571 42.324C34.5037 42.3827 34.4637 42.4493 34.4371 42.524C34.4157 42.5933 34.4051 42.6653 34.4051 42.74C34.4051 42.8573 34.4397 42.956 34.5091 43.036C34.5837 43.116 34.6797 43.156 34.7971 43.156ZM33.9488 38.756C33.7568 38.756 33.5914 38.7533 33.4528 38.748C33.3194 38.7427 33.1594 38.732 32.9728 38.716V38.372C33.1594 38.3453 33.3114 38.2893 33.4288 38.204C33.5514 38.1187 33.6128 38.0173 33.6128 37.9V37.86C33.7408 37.86 33.8448 37.8147 33.9248 37.724C34.0048 37.628 34.0448 37.5213 34.0448 37.404H34.2048C34.2048 37.5853 34.1461 37.7373 34.0288 37.86C33.9114 37.9773 33.7488 38.036 33.5408 38.036C33.3434 38.036 33.1808 37.98 33.0528 37.868C32.9301 37.756 32.8688 37.6013 32.8688 37.404C32.8688 37.2013 32.9328 37.044 33.0608 36.932C33.1941 36.82 33.3621 36.764 33.5648 36.764C33.7994 36.764 33.9834 36.8307 34.1168 36.964C34.2501 37.0973 34.3168 37.2707 34.3168 37.484C34.3168 37.6653 34.2661 37.8387 34.1648 38.004C34.0634 38.1693 33.9381 38.3053 33.7888 38.412L33.5888 38.244C33.6368 38.2493 33.6848 38.2547 33.7328 38.26C33.7808 38.2653 33.8261 38.268 33.8688 38.268C34.1568 38.268 34.3994 38.212 34.5968 38.1C34.7941 37.988 34.9488 37.8227 35.0608 37.604C35.1728 37.3853 35.2421 37.1187 35.2688 36.804L35.8768 36.9C35.8394 37.1613 35.7754 37.4067 35.6848 37.636C35.5941 37.86 35.4714 38.0573 35.3168 38.228C35.1621 38.3933 34.9701 38.524 34.7408 38.62C34.5168 38.7107 34.2528 38.756 33.9488 38.756ZM33.5648 37.708C33.6714 37.708 33.7541 37.6813 33.8128 37.628C33.8714 37.5747 33.9008 37.5 33.9008 37.404C33.9008 37.308 33.8714 37.2333 33.8128 37.18C33.7541 37.1213 33.6714 37.092 33.5648 37.092C33.4634 37.092 33.3834 37.1213 33.3248 37.18C33.2661 37.2333 33.2368 37.308 33.2368 37.404C33.2368 37.5 33.2661 37.5747 33.3248 37.628C33.3834 37.6813 33.4634 37.708 33.5648 37.708ZM36.3773 39.988L36.1533 39.46C36.3186 39.38 36.5213 39.3107 36.7613 39.252C37.0013 39.188 37.252 39.156 37.5133 39.156C38.052 39.156 38.452 39.2813 38.7133 39.532C38.98 39.7773 39.1133 40.1533 39.1133 40.66V43.5H38.4253V40.732C38.4253 40.5133 38.396 40.332 38.3373 40.188C38.2786 40.0387 38.1773 39.9267 38.0333 39.852C37.8946 39.772 37.7026 39.732 37.4573 39.732C37.276 39.732 37.0893 39.756 36.8973 39.804C36.7053 39.852 36.532 39.9133 36.3773 39.988ZM41.7327 42.052H41.8687V42.156H41.7327V42.052ZM41.8367 41.484C41.8367 41.7613 41.8207 42.036 41.7887 42.308C41.7567 42.58 41.7194 42.8387 41.6767 43.084H41.5727C41.5834 42.828 41.6447 42.556 41.7567 42.268C41.8687 41.9747 42.0154 41.7 42.1967 41.444C42.378 41.188 42.5754 40.98 42.7887 40.82C43.0074 40.6547 43.226 40.572 43.4447 40.572L43.4527 40.732C43.314 40.732 43.194 40.692 43.0927 40.612C42.9914 40.5267 42.9114 40.4253 42.8527 40.308C42.7994 40.1907 42.7727 40.076 42.7727 39.964C42.7727 39.7187 42.8554 39.5267 43.0207 39.388C43.1914 39.2493 43.402 39.18 43.6527 39.18C43.9034 39.18 44.1114 39.2493 44.2767 39.388C44.4474 39.5267 44.5327 39.7187 44.5327 39.964C44.5327 40.0813 44.498 40.2013 44.4287 40.324C44.3594 40.4467 44.266 40.5507 44.1487 40.636C44.0314 40.716 43.9007 40.756 43.7567 40.756V40.564C43.9167 40.564 44.0474 40.6013 44.1487 40.676C44.2554 40.7507 44.3327 40.844 44.3807 40.956C44.434 41.068 44.4607 41.1827 44.4607 41.3V43.5H43.7727V41.332C43.7727 41.2413 43.754 41.1747 43.7167 41.132C43.6794 41.084 43.618 41.06 43.5327 41.06C43.41 41.06 43.242 41.1507 43.0287 41.332C42.8207 41.508 42.6047 41.7773 42.3807 42.14C42.1567 42.4973 41.962 42.9507 41.7967 43.5H41.1487V40.548C41.2287 40.548 41.3087 40.5187 41.3887 40.46C41.4687 40.396 41.5354 40.3213 41.5887 40.236C41.6474 40.1453 41.6767 40.0573 41.6767 39.972H41.7807C41.7807 40.2013 41.714 40.3907 41.5807 40.54C41.4527 40.6893 41.258 40.764 40.9967 40.764C40.7514 40.764 40.5514 40.6947 40.3967 40.556C40.242 40.4173 40.1647 40.2253 40.1647 39.98C40.1647 39.7293 40.2394 39.5347 40.3887 39.396C40.538 39.252 40.7407 39.18 40.9967 39.18C41.258 39.18 41.4634 39.2573 41.6127 39.412C41.762 39.5613 41.8367 39.7773 41.8367 40.06V41.484ZM40.9967 40.38C41.1247 40.38 41.2234 40.3453 41.2927 40.276C41.362 40.2067 41.3967 40.1053 41.3967 39.972C41.3967 39.844 41.362 39.7453 41.2927 39.676C41.2234 39.6013 41.1247 39.564 40.9967 39.564C40.8687 39.564 40.77 39.6013 40.7007 39.676C40.6314 39.7453 40.5967 39.844 40.5967 39.972C40.5967 40.1 40.6314 40.2013 40.7007 40.276C40.77 40.3453 40.8687 40.38 40.9967 40.38ZM43.2527 39.964C43.2527 40.0653 43.2874 40.156 43.3567 40.236C43.4314 40.316 43.53 40.38 43.6527 40.428C43.7754 40.38 43.8714 40.316 43.9407 40.236C44.0154 40.156 44.0527 40.0653 44.0527 39.964C44.0527 39.8573 44.0154 39.7693 43.9407 39.7C43.866 39.6307 43.77 39.596 43.6527 39.596C43.5354 39.596 43.4394 39.6307 43.3647 39.7C43.29 39.7693 43.2527 39.8573 43.2527 39.964ZM46.4376 43.556C46.1762 43.556 45.9709 43.4787 45.8216 43.324C45.6722 43.1693 45.5976 42.9533 45.5976 42.676V42.012C45.5976 41.7187 45.6642 41.4787 45.7976 41.292C45.9309 41.1053 46.1122 40.9667 46.3416 40.876C46.5709 40.7853 46.8269 40.74 47.1096 40.74C47.2962 40.74 47.4882 40.7693 47.6856 40.828C47.8882 40.8813 48.0749 40.9693 48.2456 41.092C48.4162 41.2093 48.5549 41.3667 48.6616 41.564C48.7682 41.756 48.8216 41.9907 48.8216 42.268L48.3256 41.884V40.756C48.3256 40.5373 48.2882 40.3533 48.2136 40.204C48.1389 40.0493 48.0162 39.932 47.8456 39.852C47.6802 39.772 47.4562 39.732 47.1736 39.732C46.9176 39.732 46.6749 39.7693 46.4456 39.844C46.2162 39.9187 46.0002 40.0093 45.7976 40.116L45.5976 39.564C45.8322 39.4413 46.0882 39.3427 46.3656 39.268C46.6482 39.1933 46.9362 39.156 47.2296 39.156C47.8322 39.156 48.2802 39.284 48.5736 39.54C48.8669 39.796 49.0136 40.1773 49.0136 40.684V43.5H48.3256V42.268C48.3256 42.0813 48.2776 41.916 48.1816 41.772C48.0856 41.628 47.9496 41.516 47.7736 41.436C47.6029 41.3507 47.4002 41.308 47.1656 41.308C46.8509 41.308 46.6216 41.38 46.4776 41.524C46.3389 41.6627 46.2696 41.8227 46.2696 42.004V42.188C46.1896 42.188 46.1096 42.22 46.0296 42.284C45.9549 42.3427 45.8909 42.4173 45.8376 42.508C45.7842 42.5933 45.7576 42.6787 45.7576 42.764H45.6536C45.6536 42.5347 45.7176 42.3453 45.8456 42.196C45.9789 42.0467 46.1762 41.972 46.4376 41.972C46.6882 41.972 46.8882 42.0413 47.0376 42.18C47.1922 42.3187 47.2696 42.5107 47.2696 42.756C47.2696 43.0013 47.1949 43.196 47.0456 43.34C46.8962 43.484 46.6936 43.556 46.4376 43.556ZM46.4376 43.172C46.5656 43.172 46.6642 43.1373 46.7336 43.068C46.8029 42.9933 46.8376 42.892 46.8376 42.764C46.8376 42.636 46.8029 42.5373 46.7336 42.468C46.6642 42.3933 46.5656 42.356 46.4376 42.356C46.3096 42.356 46.2109 42.3907 46.1416 42.46C46.0722 42.5293 46.0376 42.6307 46.0376 42.764C46.0376 42.892 46.0722 42.9933 46.1416 43.068C46.2109 43.1373 46.3096 43.172 46.4376 43.172ZM48.2456 41.124H48.3976V41.212H48.2456V41.124ZM48.0043 38.756C47.7323 38.756 47.4869 38.7213 47.2683 38.652C47.0496 38.5827 46.8763 38.4787 46.7483 38.34C46.6203 38.196 46.5563 38.012 46.5563 37.788C46.5563 37.58 46.6229 37.404 46.7563 37.26C46.8896 37.1107 47.0789 37.036 47.3243 37.036C47.5429 37.036 47.7269 37.1027 47.8763 37.236C48.0256 37.3693 48.1003 37.5453 48.1003 37.764C48.1003 37.86 48.0843 37.9507 48.0523 38.036C48.0256 38.1213 47.9829 38.1987 47.9243 38.268C47.8709 38.3373 47.8016 38.3987 47.7163 38.452L47.7883 38.204C47.8309 38.22 47.8736 38.2333 47.9163 38.244C47.9643 38.2493 48.0176 38.252 48.0763 38.252C48.3376 38.252 48.5829 38.18 48.8123 38.036C49.0469 37.8867 49.2416 37.6787 49.3963 37.412L49.9323 37.7C49.7669 38.02 49.5189 38.276 49.1883 38.468C48.8576 38.66 48.4629 38.756 48.0043 38.756ZM47.3243 38.124C47.4309 38.124 47.5109 38.092 47.5643 38.028C47.6229 37.9587 47.6523 37.8707 47.6523 37.764C47.6523 37.6573 47.6229 37.5693 47.5643 37.5C47.5109 37.4307 47.4309 37.396 47.3243 37.396C47.2229 37.396 47.1429 37.4307 47.0843 37.5C47.0309 37.5693 47.0043 37.6573 47.0043 37.764C47.0043 37.8707 47.0309 37.9587 47.0843 38.028C47.1429 38.092 47.2229 38.124 47.3243 38.124ZM52.0071 39.156C52.3431 39.156 52.6471 39.2093 52.9191 39.316C53.1965 39.4227 53.4151 39.588 53.5751 39.812C53.7405 40.036 53.8231 40.3267 53.8231 40.684V43.5H53.1351V40.756C53.1351 40.3987 53.0285 40.14 52.8151 39.98C52.6018 39.8147 52.3298 39.732 51.9991 39.732C51.7538 39.732 51.5485 39.7747 51.3831 39.86C51.2178 39.9453 51.0925 40.068 51.0071 40.228C50.9271 40.388 50.8871 40.5827 50.8871 40.812L50.6151 40.524L51.8391 40.972L51.7591 41.444C51.5458 41.444 51.3725 41.508 51.2391 41.636C51.1111 41.7587 51.0471 41.9613 51.0471 42.244V43.5H50.3591V42.236C50.3591 41.8893 50.4578 41.6253 50.6551 41.444C50.8525 41.2573 51.0898 41.164 51.3671 41.164L51.4551 41.284L50.1991 40.852V40.588C50.1991 40.3213 50.2711 40.0813 50.4151 39.868C50.5591 39.6493 50.7671 39.476 51.0391 39.348C51.3111 39.22 51.6338 39.156 52.0071 39.156ZM51.1271 41.108H51.1831V41.252H51.1271V41.108Z" fill="white"/>
</svg>
