<svg width="36" height="35" viewBox="0 0 36 35" fill="none" xmlns="http://www.w3.org/2000/svg">
<path d="M6.33317 29.1668H15.0832V23.3335C15.0832 21.7227 16.389 20.4168 17.9998 20.4168C19.6107 20.4168 20.9165 21.7227 20.9165 23.3335V29.1668H29.6665V16.7012C29.6665 15.922 29.6658 15.5321 29.5711 15.1695C29.4871 14.8482 29.3493 14.5441 29.1627 14.2693C28.9523 13.9593 28.6596 13.7021 28.0732 13.189L21.0732 7.06397C19.9844 6.11127 19.44 5.63515 18.8273 5.45397C18.2874 5.29432 17.712 5.29432 17.1721 5.45397C16.5599 5.63502 16.0163 6.11068 14.9291 7.06195L7.9268 13.189C7.34035 13.7021 7.04781 13.9592 6.83732 14.2693C6.65078 14.5441 6.51189 14.8482 6.42792 15.1695C6.33317 15.5321 6.33317 15.922 6.33317 16.7012V29.1668Z" fill="#F9E090"/>
</svg>
