<svg width="36" height="37" viewBox="0 0 36 37" fill="none" xmlns="http://www.w3.org/2000/svg">
<path d="M22.3752 26V27.5C22.3752 29.9853 20.4164 32 18.0002 32C15.5839 32 13.6252 29.9853 13.6252 27.5V26M22.3752 26H13.6252M22.3752 26H27.6113C28.1692 26 28.4494 26 28.6753 25.9216C29.1068 25.7719 29.4444 25.4235 29.5899 24.9797C29.6664 24.7464 29.6664 24.4572 29.6664 23.8789C29.6664 23.6258 29.6661 23.4993 29.6469 23.3787C29.6105 23.1507 29.5245 22.9345 29.3935 22.7468C29.3243 22.6477 29.2363 22.5572 29.0628 22.3787L28.4948 21.7944C28.3115 21.6059 28.2085 21.3502 28.2085 21.0836V15.5C28.2085 9.701 23.6381 4.99999 18.0002 5C12.3623 5.00001 7.79183 9.70102 7.79183 15.5V21.0836C7.79183 21.3503 7.68864 21.6059 7.50536 21.7944L6.93734 22.3787C6.76335 22.5576 6.67627 22.6476 6.60693 22.7469C6.47591 22.9346 6.38913 23.1507 6.35275 23.3787C6.3335 23.4993 6.3335 23.6259 6.3335 23.8789C6.3335 24.4573 6.3335 24.7464 6.40999 24.9796C6.55553 25.4234 6.89466 25.7719 7.32613 25.9216C7.55202 26 7.83123 26 8.3891 26H13.6252" stroke="white" stroke-width="2" stroke-linecap="round" stroke-linejoin="round"/>
</svg>
