<svg width="36" height="35" viewBox="0 0 36 35" fill="none" xmlns="http://www.w3.org/2000/svg">
<path d="M22.3752 24.7917V26.25C22.3752 28.6662 20.4164 30.625 18.0002 30.625C15.5839 30.625 13.6252 28.6662 13.6252 26.25V24.7917M22.3752 24.7917H13.6252M22.3752 24.7917H27.6113C28.1692 24.7917 28.4494 24.7917 28.6753 24.7155C29.1068 24.5699 29.4444 24.2311 29.5899 23.7997C29.6664 23.5729 29.6664 23.2918 29.6664 22.7295C29.6664 22.4835 29.6661 22.3604 29.6469 22.2431C29.6105 22.0215 29.5245 21.8113 29.3935 21.6289C29.3243 21.5324 29.2363 21.4445 29.0628 21.271L28.4948 20.7029C28.3115 20.5196 28.2085 20.271 28.2085 20.0118V14.5833C28.2085 8.94542 23.6381 4.37499 18.0002 4.375C12.3623 4.37501 7.79183 8.94544 7.79183 14.5833V20.0119C7.79183 20.2711 7.68864 20.5196 7.50536 20.7029L6.93734 21.2709C6.76335 21.4449 6.67627 21.5323 6.60693 21.6289C6.47591 21.8114 6.38913 22.0215 6.35275 22.2431C6.3335 22.3604 6.3335 22.4835 6.3335 22.7295C6.3335 23.2918 6.3335 23.5729 6.40999 23.7996C6.55553 24.2311 6.89466 24.5699 7.32613 24.7155C7.55202 24.7917 7.83123 24.7917 8.3891 24.7917H13.6252" stroke="black" stroke-width="2" stroke-linecap="round" stroke-linejoin="round"/>
</svg>
