<svg width="36" height="35" viewBox="0 0 36 35" fill="none" xmlns="http://www.w3.org/2000/svg">
<path d="M18 32.0834C18.9031 32.0846 19.7842 31.8043 20.5207 31.2816C21.2572 30.7589 21.8126 30.0197 22.1096 29.1667H13.8904C14.1874 30.0197 14.7428 30.7589 15.4793 31.2816C16.2158 31.8043 17.0969 32.0846 18 32.0834ZM28.2083 21.2713V14.5834C28.2083 9.89196 25.0219 5.93987 20.7052 4.75133C20.2779 3.67508 19.2338 2.91675 18 2.91675C16.7663 2.91675 15.7221 3.67508 15.2948 4.75133C10.9781 5.94133 7.79167 9.89196 7.79167 14.5834V21.2713L5.30229 23.7607C5.02878 24.0341 4.87508 24.405 4.875 24.7917V26.2501C4.875 26.6369 5.02865 27.0078 5.30214 27.2813C5.57563 27.5548 5.94656 27.7084 6.33333 27.7084H29.6667C30.0534 27.7084 30.4244 27.5548 30.6979 27.2813C30.9714 27.0078 31.125 26.6369 31.125 26.2501V24.7917C31.1249 24.405 30.9712 24.0341 30.6977 23.7607L28.2083 21.2713Z" fill="white"/>
</svg>
