<svg width="25" height="25" viewBox="0 0 25 25" fill="none" xmlns="http://www.w3.org/2000/svg">
<path d="M4.0868 14.2788C5.86623 16.0478 8.96953 18.4999 12.5002 18.4999C16.0308 18.4999 19.1335 16.0478 20.913 14.2788C21.3823 13.8123 21.6177 13.5782 21.7671 13.1201C21.8738 12.7933 21.8738 12.2067 21.7671 11.8799C21.6177 11.4218 21.3823 11.1877 20.913 10.7211C19.1335 8.95208 16.0308 6.5 12.5002 6.5C8.96953 6.5 5.86623 8.95208 4.0868 10.7211C3.61714 11.188 3.38229 11.4216 3.2328 11.8799C3.12618 12.2067 3.12618 12.7933 3.2328 13.1201C3.38229 13.5784 3.61714 13.8119 4.0868 14.2788Z" stroke="#393E46" stroke-width="2" stroke-linecap="round" stroke-linejoin="round"/>
<path d="M10.5 12.5C10.5 13.6046 11.3954 14.5 12.5 14.5C13.6046 14.5 14.5 13.6046 14.5 12.5C14.5 11.3954 13.6046 10.5 12.5 10.5C11.3954 10.5 10.5 11.3954 10.5 12.5Z" stroke="#393E46" stroke-width="2" stroke-linecap="round" stroke-linejoin="round"/>
</svg>
