<svg width="36" height="31" viewBox="0 0 36 31" fill="none" xmlns="http://www.w3.org/2000/svg">
<path d="M33.1893 8.64013C33.1893 12.7102 33.1893 16.8419 33.1893 20.912C33.1893 21.097 33.1893 21.2203 33.1893 21.4053C30.7021 21.4053 28.2149 21.4053 25.6684 21.4053C25.6092 21.2203 25.6092 20.9736 25.55 20.7886C26.7344 20.7886 27.8595 20.7886 29.0439 20.7886C29.1624 20.7886 29.2808 20.7886 29.4585 20.7886C29.5177 20.7886 29.6361 20.7886 29.6954 20.7886C29.8138 20.7886 29.9322 20.7886 30.0507 20.727C31.5312 20.4186 32.5971 19.1236 32.6564 17.5203C32.6564 17.5203 32.6564 17.5203 32.6564 17.4586C32.6564 15.2386 32.6564 13.0185 32.6564 10.7985C32.6564 9.87348 32.301 8.8868 31.5904 8.27013C30.5837 7.34512 29.1624 7.16012 27.978 7.83846C26.9713 8.39347 26.3791 9.56515 26.3198 10.7368C26.3198 11.1685 26.3198 11.6002 26.3198 12.0318C26.3198 12.9569 26.3198 13.8202 26.3198 14.7452C25.7276 14.7452 25.1354 14.7452 24.6025 14.7452C24.5432 14.3135 24.484 13.9435 24.3656 13.5119C24.2471 12.9569 23.7142 12.5869 23.2404 12.5869C19.8649 12.5869 16.5486 12.5869 13.173 12.5869C12.6993 12.5869 12.1071 12.9569 12.0479 13.5119C11.9886 13.9435 11.8702 14.3135 11.811 14.7452C11.1596 14.7452 10.5081 14.7452 9.85673 14.7452C9.85673 13.8202 9.85673 12.8952 9.85673 11.9702C9.85673 11.4768 9.85673 10.9218 9.85673 10.4285C9.67907 8.82514 8.49467 7.59179 7.01418 7.46845C5.5929 7.34512 4.29007 8.20846 3.75709 9.56515C3.52021 10.1818 3.52021 10.7368 3.52021 11.3535C3.52021 12.9569 3.52021 14.5602 3.52021 16.2252C3.52021 16.7186 3.52021 17.2736 3.52021 17.7669C3.69787 19.4319 5.05992 20.7886 6.65886 20.7886C7.9617 20.7886 9.26453 20.7886 10.5674 20.7886C10.5081 20.9736 10.5081 21.2203 10.4489 21.4053C7.90248 21.4053 5.41524 21.4053 2.86879 21.4053C2.86879 17.7053 2.86879 14.0669 2.86879 10.3668C2.86879 9.81182 2.86879 9.19514 2.86879 8.64013C2.86879 7.03678 0.5 7.03678 0.5 8.64013C0.5 12.7102 0.5 16.8419 0.5 20.912C0.5 21.467 0.5 22.0836 0.5 22.6387C0.5 24.5503 0.5 26.5237 0.5 28.4354C0.5 28.6821 0.5 28.9904 0.5 29.2371C0.5 29.8538 1.03298 30.4704 1.6844 30.4704C2.33581 30.4704 2.86879 29.9154 2.86879 29.2371C2.86879 27.4487 2.86879 25.6604 2.86879 23.872C5.23758 23.872 7.60638 23.872 9.97517 23.872C9.79751 24.9204 9.56063 25.9687 9.38297 27.017C9.26453 27.6337 9.14609 28.3121 9.02765 28.9287C8.84999 29.7304 9.38297 30.4704 10.1528 30.4704C11.4557 30.4704 12.7585 30.4704 14.0613 30.4704C14.772 30.4704 15.4826 30.4704 16.1932 30.4704C16.9631 30.4704 17.5553 30.0388 18.0883 29.4837C18.3252 29.6687 18.562 29.9154 18.7989 30.1004C19.4503 30.6554 20.3979 30.4704 21.1677 30.4704C22.7074 30.4704 24.3064 30.4704 25.8461 30.4704H25.9053H25.9645C26.2014 30.4704 26.4383 30.3471 26.5567 30.2238C26.6159 30.1621 26.6159 30.1621 26.6752 30.1004C26.912 29.7921 27.0305 29.3604 26.9713 28.9287C26.6752 27.2637 26.3791 25.537 26.083 23.872C28.4517 23.872 30.8205 23.872 33.1301 23.872C33.1301 25.4137 33.1301 26.8937 33.1301 28.4354C33.1301 28.6821 33.1301 28.9904 33.1301 29.2371C33.1301 29.8538 33.6631 30.4704 34.3145 30.4704C34.9659 30.4704 35.4989 29.9154 35.4989 29.2371C35.4989 27.3254 35.4989 25.352 35.4989 23.4403C35.4989 23.1937 35.4989 22.8853 35.4989 22.6387C35.4989 18.5686 35.4989 14.4369 35.4989 10.3668C35.4989 9.81182 35.4989 9.19514 35.4989 8.64013C35.5581 7.03678 33.1893 7.03678 33.1893 8.64013ZM28.6294 12.9569C28.6294 12.3402 28.6294 11.7852 28.6294 11.1685C28.6294 11.0452 28.6294 10.8602 28.6294 10.7368C28.6294 10.6752 28.6294 10.6752 28.6294 10.6135C28.6294 10.6752 28.6886 10.4285 28.6886 10.4285V10.3668C28.6886 10.3052 28.7478 10.2435 28.7478 10.1818C28.7478 10.1818 28.7478 10.1818 28.7478 10.1202C28.7478 10.1202 28.8071 10.1202 28.8071 10.0585C28.8663 9.99682 28.8663 9.99682 28.8663 9.99682C28.8663 9.99682 28.8663 9.99682 28.9255 9.99682C28.9255 9.99682 29.0439 9.93515 29.1032 9.93515C29.1624 9.93515 29.2808 9.87348 29.2808 9.87348H29.34C29.34 9.87348 29.3993 9.87348 29.4585 9.87348H29.5177C29.5769 9.87348 29.6361 9.93515 29.6954 9.93515C29.6954 9.93515 29.8138 9.99682 29.873 10.0585C29.873 10.0585 29.9322 10.1202 29.9915 10.1202L30.1099 10.3052L30.1691 10.3668V10.4285C30.1691 10.4285 30.2283 10.6752 30.2283 10.6135C30.2283 10.6752 30.2283 10.7368 30.2283 10.8602C30.2283 12.0318 30.2283 13.1419 30.2283 14.3135C30.2283 15.3619 30.2283 16.4102 30.2283 17.4586C30.2283 17.8903 29.873 18.2603 29.4585 18.2603C28.0372 18.2603 26.6159 18.2603 25.1947 18.2603C25.1354 17.8903 25.0762 17.5203 25.017 17.1502C25.6684 17.1502 26.3791 17.1502 27.0305 17.1502C27.2081 17.1502 27.3266 17.1502 27.5042 17.1502C27.8003 17.1502 28.0964 17.0269 28.2741 16.8419C28.511 16.5952 28.6886 16.2869 28.6886 15.9169C28.6294 14.9919 28.6294 14.0052 28.6294 12.9569ZM7.25106 18.3219C7.0734 18.3219 6.83652 18.3219 6.65886 18.3219C6.1851 18.3219 5.889 17.9519 5.889 17.4586C5.889 17.0886 5.889 16.7186 5.889 16.2869C5.889 14.8686 5.889 13.3885 5.889 11.9702C5.889 11.5385 5.889 11.1685 5.889 10.7368C5.889 10.2435 6.1851 9.87348 6.65886 9.87348C7.13262 9.87348 7.42872 10.2435 7.42872 10.7368C7.42872 11.1685 7.42872 11.6618 7.42872 12.0935C7.42872 13.3885 7.42872 14.6835 7.42872 15.9786C7.42872 16.4102 7.60638 16.7186 7.84326 16.9036C8.02091 17.0886 8.31701 17.2119 8.61311 17.2119C9.50141 17.2119 10.3897 17.2119 11.278 17.2119C11.2188 17.5819 11.1596 17.9519 11.0411 18.3219C9.79751 18.3219 8.49467 18.3219 7.25106 18.3219ZM20.0425 28.0037C19.628 27.6337 19.2727 27.3254 18.8581 26.9554C18.3252 26.5237 17.6737 26.462 17.2 26.9554C16.8447 27.3254 16.4301 27.6337 16.0748 28.0037C14.5943 28.0037 13.1138 28.0037 11.5741 28.0037C12.344 23.9953 13.1138 20.0486 13.8837 16.0402C13.9429 15.6702 14.0021 15.3619 14.0613 14.9919C16.7854 14.9919 19.4503 14.9919 22.1744 14.9919C22.8851 19.1853 23.5957 23.3787 24.3656 27.5721C24.3656 27.6954 24.4248 27.8187 24.4248 27.9421C22.9443 28.0037 21.523 28.0037 20.0425 28.0037Z" fill="#F9E090"/>
<path d="M20.0425 28.0037C19.628 27.6337 19.2727 27.3254 18.8581 26.9554C18.3252 26.5237 17.6737 26.462 17.2 26.9554C16.8447 27.3254 16.4301 27.6337 16.0748 28.0037H11.5741C12.344 23.9953 13.1138 20.0486 13.8837 16.0402C13.9429 15.6702 14.0021 15.3619 14.0613 14.9919H22.1744C22.8851 19.1853 23.5957 23.3787 24.3656 27.5721C24.3656 27.6954 24.4248 27.8187 24.4248 27.9421C22.9443 28.0037 21.523 28.0037 20.0425 28.0037Z" fill="#F9E090"/>
<path d="M7.25106 18.3219H6.65886C6.1851 18.3219 5.889 17.9519 5.889 17.4586V16.2869V11.9702V10.7368C5.889 10.2435 6.1851 9.87348 6.65886 9.87348C7.13262 9.87348 7.42872 10.2435 7.42872 10.7368V12.0935V15.9786C7.42872 16.4102 7.60638 16.7186 7.84326 16.9036C8.02091 17.0886 8.31701 17.2119 8.61311 17.2119H11.278C11.2188 17.5819 11.1596 17.9519 11.0411 18.3219H7.25106Z" fill="#F9E090"/>
<path d="M28.6294 12.9569V11.1685V10.7368V10.6135C28.6294 10.6752 28.6886 10.4285 28.6886 10.4285V10.3668C28.6886 10.3052 28.7478 10.2435 28.7478 10.1818V10.1202C28.7478 10.1202 28.8071 10.1202 28.8071 10.0585L28.8663 9.99682H28.9255C28.9255 9.99682 29.0439 9.93515 29.1032 9.93515C29.1624 9.93515 29.2808 9.87348 29.2808 9.87348H29.34H29.4585H29.5177C29.5769 9.87348 29.6361 9.93515 29.6954 9.93515C29.6954 9.93515 29.8138 9.99682 29.873 10.0585C29.873 10.0585 29.9322 10.1202 29.9915 10.1202L30.1099 10.3052L30.1691 10.3668V10.4285C30.1691 10.4285 30.2283 10.6752 30.2283 10.6135V10.8602V14.3135V17.4586C30.2283 17.8903 29.873 18.2603 29.4585 18.2603H25.1947L25.017 17.1502H27.0305H27.5042C27.8003 17.1502 28.0964 17.0269 28.2741 16.8419C28.511 16.5952 28.6886 16.2869 28.6886 15.9169C28.6294 14.9919 28.6294 14.0052 28.6294 12.9569Z" fill="#F9E090"/>
<path d="M6.65909 6.54341C8.25803 6.54341 9.56087 5.18673 9.56087 3.52171C9.56087 1.85668 8.25803 0.5 6.65909 0.5C5.06016 0.5 3.75732 1.85668 3.75732 3.52171C3.75732 5.18673 5.06016 6.54341 6.65909 6.54341ZM6.65909 2.9667C6.95519 2.9667 7.19207 3.21337 7.19207 3.52171C7.19207 3.83004 6.95519 4.07671 6.65909 4.07671C6.363 4.07671 6.12612 3.83004 6.12612 3.52171C6.12612 3.21337 6.363 2.9667 6.65909 2.9667Z" fill="#F9E090"/>
<path d="M6.65909 2.9667C6.95519 2.9667 7.19207 3.21337 7.19207 3.52171C7.19207 3.83004 6.95519 4.07671 6.65909 4.07671C6.363 4.07671 6.12612 3.83004 6.12612 3.52171C6.12612 3.21337 6.363 2.9667 6.65909 2.9667Z" fill="#F9E090"/>
<path d="M29.4584 6.54341C31.0573 6.54341 32.3602 5.18673 32.3602 3.52171C32.3602 1.85668 31.0573 0.5 29.4584 0.5C27.8595 0.5 26.5566 1.85668 26.5566 3.52171C26.5566 5.18673 27.8595 6.54341 29.4584 6.54341ZM29.4584 2.9667C29.7545 2.9667 29.9914 3.21337 29.9914 3.52171C29.9914 3.83004 29.7545 4.07671 29.4584 4.07671C29.1623 4.07671 28.9254 3.83004 28.9254 3.52171C28.9254 3.21337 29.1623 2.9667 29.4584 2.9667Z" fill="#F9E090"/>
<path d="M29.4584 2.9667C29.7545 2.9667 29.9914 3.21337 29.9914 3.52171C29.9914 3.83004 29.7545 4.07671 29.4584 4.07671C29.1623 4.07671 28.9254 3.83004 28.9254 3.52171C28.9254 3.21337 29.1623 2.9667 29.4584 2.9667Z" fill="#F9E090"/>
</svg>
