<svg width="80" height="56" viewBox="0 0 80 56" fill="none" xmlns="http://www.w3.org/2000/svg">
<path d="M49.5476 15.3841C49.5476 17.8261 49.5476 20.3051 49.5476 22.7472C49.5476 22.8582 49.5476 22.9322 49.5476 23.0432C47.9842 23.0432 46.4208 23.0432 44.8201 23.0432C44.7829 22.9322 44.7829 22.7842 44.7457 22.6732C45.4902 22.6732 46.1974 22.6732 46.9419 22.6732C47.0164 22.6732 47.0908 22.6732 47.2025 22.6732C47.2397 22.6732 47.3141 22.6732 47.3514 22.6732C47.4258 22.6732 47.5003 22.6732 47.5747 22.6362C48.5053 22.4512 49.1753 21.6741 49.2126 20.7121C49.2126 20.7121 49.2126 20.7121 49.2126 20.6751C49.2126 19.3431 49.2126 18.0111 49.2126 16.6791C49.2126 16.1241 48.9892 15.5321 48.5425 15.1621C47.9097 14.6071 47.0164 14.4961 46.2719 14.9031C45.6391 15.2361 45.2668 15.9391 45.2296 16.6421C45.2296 16.9011 45.2296 17.1601 45.2296 17.4191C45.2296 17.9741 45.2296 18.4921 45.2296 19.0471C44.8574 19.0471 44.4851 19.0471 44.1501 19.0471C44.1129 18.7881 44.0757 18.5661 44.0012 18.3071C43.9268 17.9741 43.5918 17.7521 43.294 17.7521C41.1722 17.7521 39.0877 17.7521 36.9659 17.7521C36.6681 17.7521 36.2959 17.9741 36.2587 18.3071C36.2214 18.5661 36.147 18.7881 36.1098 19.0471C35.7003 19.0471 35.2908 19.0471 34.8814 19.0471C34.8814 18.4921 34.8814 17.9371 34.8814 17.3821C34.8814 17.0861 34.8814 16.7531 34.8814 16.4571C34.7697 15.4951 34.0252 14.7551 33.0946 14.6811C32.2013 14.6071 31.3823 15.1251 31.0473 15.9391C30.8984 16.3091 30.8984 16.6421 30.8984 17.0121C30.8984 17.9741 30.8984 18.9361 30.8984 19.9351C30.8984 20.2311 30.8984 20.5641 30.8984 20.8601C31.0101 21.8591 31.8662 22.6732 32.8713 22.6732C33.6902 22.6732 34.5091 22.6732 35.3281 22.6732C35.2908 22.7842 35.2908 22.9322 35.2536 23.0432C33.653 23.0432 32.0896 23.0432 30.489 23.0432C30.489 20.8231 30.489 18.6401 30.489 16.4201C30.489 16.0871 30.489 15.7171 30.489 15.3841C30.489 14.4221 29 14.4221 29 15.3841C29 17.8261 29 20.3051 29 22.7472C29 23.0802 29 23.4502 29 23.7832C29 24.9302 29 26.1142 29 27.2612C29 27.4092 29 27.5942 29 27.7422C29 28.1122 29.335 28.4822 29.7445 28.4822C30.1539 28.4822 30.489 28.1492 30.489 27.7422C30.489 26.6692 30.489 25.5962 30.489 24.5232C31.9779 24.5232 33.4669 24.5232 34.9558 24.5232C34.8441 25.1522 34.6953 25.7812 34.5836 26.4102C34.5091 26.7802 34.4347 27.1872 34.3602 27.5572C34.2486 28.0382 34.5836 28.4822 35.0675 28.4822C35.8864 28.4822 36.7053 28.4822 37.5243 28.4822C37.971 28.4822 38.4176 28.4822 38.8643 28.4822C39.3482 28.4822 39.7205 28.2232 40.0555 27.8902C40.2044 28.0012 40.3533 28.1492 40.5022 28.2602C40.9116 28.5932 41.5072 28.4822 41.9911 28.4822C42.959 28.4822 43.964 28.4822 44.9318 28.4822H44.969H45.0063C45.1552 28.4822 45.3041 28.4082 45.3785 28.3342C45.4157 28.2972 45.4157 28.2972 45.453 28.2602C45.6018 28.0752 45.6763 27.8162 45.6391 27.5572C45.453 26.5582 45.2668 25.5222 45.0807 24.5232C46.5697 24.5232 48.0586 24.5232 49.5104 24.5232C49.5104 25.4482 49.5104 26.3362 49.5104 27.2612C49.5104 27.4092 49.5104 27.5942 49.5104 27.7422C49.5104 28.1122 49.8454 28.4822 50.2548 28.4822C50.6643 28.4822 50.9993 28.1492 50.9993 27.7422C50.9993 26.5952 50.9993 25.4112 50.9993 24.2642C50.9993 24.1162 50.9993 23.9312 50.9993 23.7832C50.9993 21.3411 50.9993 18.8621 50.9993 16.4201C50.9993 16.0871 50.9993 15.7171 50.9993 15.3841C51.0365 14.4221 49.5476 14.4221 49.5476 15.3841ZM46.6813 17.9741C46.6813 17.6041 46.6813 17.2711 46.6813 16.9011C46.6813 16.8271 46.6813 16.7161 46.6813 16.6421C46.6813 16.6051 46.6813 16.6051 46.6813 16.5681C46.6813 16.6051 46.7186 16.4571 46.7186 16.4571V16.4201C46.7186 16.3831 46.7558 16.3461 46.7558 16.3091C46.7558 16.3091 46.7558 16.3091 46.7558 16.2721C46.7558 16.2721 46.793 16.2721 46.793 16.2351C46.8302 16.1981 46.8302 16.1981 46.8302 16.1981C46.8302 16.1981 46.8302 16.1981 46.8675 16.1981C46.8675 16.1981 46.9419 16.1611 46.9791 16.1611C47.0164 16.1611 47.0908 16.1241 47.0908 16.1241H47.128C47.128 16.1241 47.1653 16.1241 47.2025 16.1241H47.2397C47.2769 16.1241 47.3141 16.1611 47.3514 16.1611C47.3514 16.1611 47.4258 16.1981 47.463 16.2351C47.463 16.2351 47.5003 16.2721 47.5375 16.2721L47.6119 16.3831L47.6492 16.4201V16.4571C47.6492 16.4571 47.6864 16.6051 47.6864 16.5681C47.6864 16.6051 47.6864 16.6421 47.6864 16.7161C47.6864 17.4191 47.6864 18.0851 47.6864 18.7881C47.6864 19.4171 47.6864 20.0461 47.6864 20.6751C47.6864 20.9341 47.463 21.1561 47.2025 21.1561C46.3091 21.1561 45.4157 21.1561 44.5224 21.1561C44.4851 20.9341 44.4479 20.7121 44.4107 20.4901C44.8201 20.4901 45.2668 20.4901 45.6763 20.4901C45.788 20.4901 45.8624 20.4901 45.9741 20.4901C46.1602 20.4901 46.3463 20.4161 46.458 20.3051C46.6069 20.1571 46.7186 19.9721 46.7186 19.7501C46.6813 19.1951 46.6813 18.6031 46.6813 17.9741ZM33.2435 21.1931C33.1319 21.1931 32.983 21.1931 32.8713 21.1931C32.5735 21.1931 32.3874 20.9711 32.3874 20.6751C32.3874 20.4531 32.3874 20.2311 32.3874 19.9721C32.3874 19.1211 32.3874 18.2331 32.3874 17.3821C32.3874 17.1231 32.3874 16.9011 32.3874 16.6421C32.3874 16.3461 32.5735 16.1241 32.8713 16.1241C33.1691 16.1241 33.3552 16.3461 33.3552 16.6421C33.3552 16.9011 33.3552 17.1971 33.3552 17.4561C33.3552 18.2331 33.3552 19.0101 33.3552 19.7871C33.3552 20.0461 33.4669 20.2311 33.6158 20.3421C33.7274 20.4531 33.9136 20.5271 34.0997 20.5271C34.658 20.5271 35.2164 20.5271 35.7747 20.5271C35.7375 20.7491 35.7003 20.9711 35.6259 21.1931C34.8441 21.1931 34.0252 21.1931 33.2435 21.1931ZM41.2839 27.0022C41.0233 26.7802 40.8 26.5952 40.5394 26.3732C40.2044 26.1142 39.7949 26.0772 39.4971 26.3732C39.2738 26.5952 39.0132 26.7802 38.7899 27.0022C37.8593 27.0022 36.9287 27.0022 35.9609 27.0022C36.4448 24.5972 36.9287 22.2292 37.4126 19.8241C37.4498 19.6021 37.487 19.4171 37.5243 19.1951C39.2366 19.1951 40.9116 19.1951 42.6239 19.1951C43.0706 21.7111 43.5173 24.2272 44.0012 26.7432C44.0012 26.8172 44.0384 26.8912 44.0384 26.9652C43.1078 27.0022 42.2145 27.0022 41.2839 27.0022Z" fill="white"/>
<path d="M32.8713 14.126C33.8764 14.126 34.6953 13.312 34.6953 12.313C34.6953 11.314 33.8764 10.5 32.8713 10.5C31.8663 10.5 31.0474 11.314 31.0474 12.313C31.0474 13.312 31.8663 14.126 32.8713 14.126ZM32.8713 11.98C33.0575 11.98 33.2063 12.128 33.2063 12.313C33.2063 12.498 33.0575 12.646 32.8713 12.646C32.6852 12.646 32.5363 12.498 32.5363 12.313C32.5363 12.128 32.6852 11.98 32.8713 11.98Z" fill="white"/>
<path d="M47.2025 14.126C48.2076 14.126 49.0265 13.312 49.0265 12.313C49.0265 11.314 48.2076 10.5 47.2025 10.5C46.1975 10.5 45.3785 11.314 45.3785 12.313C45.3785 13.312 46.1975 14.126 47.2025 14.126ZM47.2025 11.98C47.3886 11.98 47.5375 12.128 47.5375 12.313C47.5375 12.498 47.3886 12.646 47.2025 12.646C47.0164 12.646 46.8675 12.498 46.8675 12.313C46.8675 12.128 47.0164 11.98 47.2025 11.98Z" fill="white"/>
<path d="M28.6435 42.5V40.98C28.7235 40.98 28.8035 40.9507 28.8835 40.892C28.9635 40.828 29.0302 40.7533 29.0835 40.668C29.1422 40.5773 29.1715 40.4893 29.1715 40.404H29.2755C29.2755 40.6333 29.2088 40.8227 29.0755 40.972C28.9475 41.1213 28.7528 41.196 28.4915 41.196C28.2462 41.196 28.0462 41.1267 27.8915 40.988C27.7368 40.8493 27.6595 40.6573 27.6595 40.412C27.6595 40.1613 27.7342 39.9667 27.8835 39.828C28.0328 39.684 28.2355 39.612 28.4915 39.612C28.7528 39.612 28.9582 39.6893 29.1075 39.844C29.2568 39.9933 29.3315 40.2093 29.3315 40.492V42.02L29.2115 41.924H29.3875C29.6542 41.924 29.8675 41.8573 30.0275 41.724C30.1875 41.5907 30.3048 41.404 30.3795 41.164C30.4542 40.9187 30.4915 40.636 30.4915 40.316C30.4915 39.772 30.3715 39.372 30.1315 39.116C29.8968 38.86 29.5502 38.732 29.0915 38.732C28.8408 38.732 28.6088 38.756 28.3955 38.804C28.1822 38.8467 27.9822 38.9053 27.7955 38.98L27.6035 38.42C27.8222 38.34 28.0568 38.276 28.3075 38.228C28.5635 38.18 28.8462 38.156 29.1555 38.156C29.6088 38.156 29.9848 38.244 30.2835 38.42C30.5822 38.5907 30.8062 38.8387 30.9555 39.164C31.1048 39.484 31.1795 39.868 31.1795 40.316C31.1795 40.7107 31.1262 41.0733 31.0195 41.404C30.9182 41.7347 30.7422 42.0013 30.4915 42.204C30.2462 42.4013 29.9075 42.5 29.4755 42.5H28.6435ZM28.4915 40.812C28.6195 40.812 28.7182 40.7773 28.7875 40.708C28.8568 40.6387 28.8915 40.5373 28.8915 40.404C28.8915 40.276 28.8568 40.1773 28.7875 40.108C28.7182 40.0333 28.6195 39.996 28.4915 39.996C28.3635 39.996 28.2648 40.0333 28.1955 40.108C28.1262 40.1773 28.0915 40.276 28.0915 40.404C28.0915 40.532 28.1262 40.6333 28.1955 40.708C28.2648 40.7773 28.3635 40.812 28.4915 40.812ZM35.6726 39.684V41.268C35.6726 41.5613 35.6273 41.7987 35.5366 41.98C35.446 42.1613 35.302 42.2947 35.1046 42.38C34.9073 42.46 34.6486 42.5 34.3286 42.5H32.2486V40.412C32.2486 40.1293 32.3233 39.9133 32.4726 39.764C32.622 39.6093 32.8273 39.532 33.0886 39.532C33.3446 39.532 33.5473 39.604 33.6966 39.748C33.846 39.8867 33.9206 40.0813 33.9206 40.332C33.9206 40.5773 33.8433 40.7693 33.6886 40.908C33.5393 41.0467 33.3393 41.116 33.0886 41.116C32.8273 41.116 32.63 41.0413 32.4966 40.892C32.3686 40.7427 32.3046 40.5533 32.3046 40.324H32.4086C32.4086 40.4093 32.4353 40.4973 32.4886 40.588C32.5473 40.6733 32.6166 40.748 32.6966 40.812C32.7766 40.8707 32.8566 40.9 32.9366 40.9V41.932H34.3206C34.5873 41.932 34.7633 41.876 34.8486 41.764C34.9393 41.652 34.9846 41.476 34.9846 41.236V39.756C34.9846 39.5373 34.9446 39.3533 34.8646 39.204C34.79 39.0493 34.6673 38.932 34.4966 38.852C34.3313 38.772 34.1073 38.732 33.8246 38.732C33.5793 38.732 33.3366 38.7667 33.0966 38.836C32.862 38.9053 32.6433 38.9933 32.4406 39.1L32.2486 38.548C32.4833 38.4253 32.742 38.3293 33.0246 38.26C33.3126 38.1907 33.598 38.156 33.8806 38.156C34.4833 38.156 34.9313 38.284 35.2246 38.54C35.5233 38.796 35.6726 39.1773 35.6726 39.684ZM33.0886 40.732C33.2166 40.732 33.3153 40.6973 33.3846 40.628C33.454 40.5533 33.4886 40.452 33.4886 40.324C33.4886 40.196 33.454 40.0973 33.3846 40.028C33.3153 39.9533 33.2166 39.916 33.0886 39.916C32.9606 39.916 32.862 39.9533 32.7926 40.028C32.7233 40.0973 32.6886 40.196 32.6886 40.324C32.6886 40.4573 32.7233 40.5587 32.7926 40.628C32.862 40.6973 32.9606 40.732 33.0886 40.732ZM39.8085 41.428C39.8085 41.812 39.7045 42.0867 39.4965 42.252C39.2938 42.4173 39.0112 42.5 38.6485 42.5H37.7925C37.7018 42.148 37.6005 41.8147 37.4885 41.5C37.3765 41.1853 37.2485 40.8733 37.1045 40.564C36.9658 40.2493 36.8085 39.916 36.6325 39.564L37.2405 39.308C37.4112 39.6173 37.5658 39.924 37.7045 40.228C37.8432 40.532 37.9658 40.8413 38.0725 41.156C38.1792 41.4653 38.2645 41.7907 38.3285 42.132L37.9765 41.924H38.6325C38.8192 41.924 38.9472 41.8813 39.0165 41.796C39.0858 41.7053 39.1205 41.5667 39.1205 41.38V39.548C39.2005 39.548 39.2805 39.5187 39.3605 39.46C39.4458 39.396 39.5152 39.3213 39.5685 39.236C39.6218 39.1453 39.6485 39.0573 39.6485 38.972H39.7525C39.7525 39.2013 39.6858 39.3907 39.5525 39.54C39.4245 39.6893 39.2298 39.764 38.9685 39.764C38.7232 39.764 38.5232 39.6947 38.3685 39.556C38.2138 39.4173 38.1365 39.2253 38.1365 38.98C38.1365 38.7293 38.2112 38.5347 38.3605 38.396C38.5098 38.252 38.7125 38.18 38.9685 38.18C39.2298 38.18 39.4352 38.2573 39.5845 38.412C39.7338 38.5613 39.8085 38.7773 39.8085 39.06V41.428ZM38.9685 39.38C39.0965 39.38 39.1952 39.3453 39.2645 39.276C39.3338 39.2067 39.3685 39.1053 39.3685 38.972C39.3685 38.844 39.3338 38.7453 39.2645 38.676C39.1952 38.6013 39.0965 38.564 38.9685 38.564C38.8405 38.564 38.7418 38.6013 38.6725 38.676C38.6032 38.7453 38.5685 38.844 38.5685 38.972C38.5685 39.1 38.6032 39.2013 38.6725 39.276C38.7418 39.3453 38.8405 39.38 38.9685 39.38ZM43.548 35.364L43.628 35.948C43.548 35.964 43.4653 35.9773 43.38 35.988C43.3 35.9933 43.1987 35.996 43.076 35.996C42.8787 35.996 42.6867 35.98 42.5 35.948C42.3133 35.9107 42.1267 35.892 41.94 35.892C41.748 35.892 41.588 35.9427 41.46 36.044C41.332 36.14 41.268 36.3027 41.268 36.532V36.58C41.556 36.6227 41.8013 36.6947 42.004 36.796C42.2067 36.8973 42.3613 37.0413 42.468 37.228C42.58 37.4147 42.636 37.6573 42.636 37.956V41.188C42.556 41.188 42.476 41.22 42.396 41.284C42.316 41.3427 42.2467 41.4173 42.188 41.508C42.1347 41.5933 42.108 41.6787 42.108 41.764H42.004C42.004 41.5347 42.068 41.3453 42.196 41.196C42.3293 41.0467 42.5267 40.972 42.788 40.972C43.0387 40.972 43.2387 41.0413 43.388 41.18C43.5427 41.3187 43.62 41.5107 43.62 41.756C43.62 42.0013 43.5453 42.196 43.396 42.34C43.2467 42.484 43.044 42.556 42.788 42.556C42.5267 42.556 42.3213 42.4787 42.172 42.324C42.0227 42.1693 41.948 41.9533 41.948 41.676V37.932C41.948 37.6067 41.8253 37.38 41.58 37.252C41.34 37.1187 41.0067 37.052 40.58 37.052V36.596C40.58 36.2653 40.6413 36.0067 40.764 35.82C40.892 35.6333 41.0547 35.5027 41.252 35.428C41.4547 35.348 41.6653 35.308 41.884 35.308C42.0387 35.308 42.18 35.316 42.308 35.332C42.436 35.348 42.5587 35.3667 42.676 35.388C42.7987 35.404 42.924 35.412 43.052 35.412C43.164 35.412 43.252 35.4093 43.316 35.404C43.38 35.3987 43.4573 35.3853 43.548 35.364ZM42.788 41.356C42.66 41.356 42.5613 41.3907 42.492 41.46C42.4227 41.5293 42.388 41.6307 42.388 41.764C42.388 41.892 42.4227 41.9933 42.492 42.068C42.5613 42.1373 42.66 42.172 42.788 42.172C42.916 42.172 43.0147 42.1373 43.084 42.068C43.1533 41.9933 43.188 41.892 43.188 41.764C43.188 41.636 43.1533 41.5373 43.084 41.468C43.0147 41.3933 42.916 41.356 42.788 41.356ZM44.5879 42.5V41.868C44.5879 41.692 44.5746 41.54 44.5479 41.412C44.5266 41.2787 44.4999 41.1453 44.4679 41.012C44.4413 40.8787 44.4146 40.7267 44.3879 40.556C44.3666 40.38 44.3559 40.1613 44.3559 39.9C44.3559 39.5853 44.4039 39.3 44.4999 39.044C44.5959 38.788 44.7453 38.5827 44.9479 38.428C45.1559 38.2733 45.4226 38.1907 45.7479 38.18L46.3799 38.684L47.0119 38.18C47.3053 38.1907 47.5506 38.2493 47.7479 38.356C47.9453 38.4573 48.0946 38.6093 48.1959 38.812C48.2973 39.0093 48.3479 39.2573 48.3479 39.556V42.5H47.6599V39.508C47.6599 39.2893 47.6119 39.1187 47.5159 38.996C47.4199 38.868 47.2866 38.796 47.1159 38.78L46.4039 39.316H46.3559L45.6439 38.772C45.4786 38.788 45.3373 38.9027 45.2199 39.116C45.1026 39.324 45.0439 39.6227 45.0439 40.012C45.0439 40.2253 45.0519 40.404 45.0679 40.548C45.0893 40.692 45.1106 40.82 45.1319 40.932C45.1533 41.044 45.1719 41.1613 45.1879 41.284C45.2093 41.4013 45.2199 41.5453 45.2199 41.716V42.276L44.9639 42.044L46.1159 41.108C46.4306 41.108 46.6546 41.0387 46.7879 40.9C46.9213 40.7613 46.9879 40.604 46.9879 40.428H47.0919C47.0919 40.6307 47.0279 40.8147 46.8999 40.98C46.7773 41.14 46.6119 41.22 46.4039 41.22C46.1693 41.22 45.9719 41.1507 45.8119 41.012C45.6573 40.8733 45.5799 40.6813 45.5799 40.436C45.5799 40.1853 45.6573 39.9907 45.8119 39.852C45.9666 39.708 46.1639 39.636 46.4039 39.636C46.6546 39.636 46.8519 39.7133 46.9959 39.868C47.1453 40.0173 47.2199 40.2147 47.2199 40.46C47.2199 40.6573 47.1719 40.8253 47.0759 40.964C46.9799 41.0973 46.8493 41.2333 46.6839 41.372L45.3559 42.5H44.5879ZM46.3959 40.836C46.5239 40.836 46.6199 40.7987 46.6839 40.724C46.7533 40.644 46.7879 40.5453 46.7879 40.428C46.7879 40.3107 46.7533 40.2147 46.6839 40.14C46.6199 40.06 46.5239 40.02 46.3959 40.02C46.2679 40.02 46.1693 40.06 46.0999 40.14C46.0359 40.2147 46.0039 40.3107 46.0039 40.428C46.0039 40.5453 46.0359 40.644 46.0999 40.724C46.1693 40.7987 46.2679 40.836 46.3959 40.836ZM46.1193 36.932C46.0339 36.932 45.9673 36.956 45.9193 37.004C45.8766 37.0467 45.8553 37.1107 45.8553 37.196C45.8553 37.2813 45.8766 37.348 45.9193 37.396C45.9673 37.444 46.0339 37.468 46.1193 37.468C46.2099 37.468 46.2766 37.444 46.3193 37.396C46.3619 37.348 46.3833 37.2813 46.3833 37.196C46.3833 37.1107 46.3619 37.0467 46.3193 37.004C46.2766 36.956 46.2099 36.932 46.1193 36.932ZM49.3673 35.772C49.3673 36.14 49.3219 36.4733 49.2313 36.772C49.1406 37.0653 48.9939 37.3 48.7913 37.476C48.5886 37.6467 48.3193 37.732 47.9833 37.732C47.9033 37.732 47.8206 37.7293 47.7353 37.724C47.6499 37.7187 47.5673 37.7133 47.4873 37.708V37.5C47.5353 37.3933 47.5699 37.284 47.5913 37.172C47.6179 37.06 47.6313 36.9427 47.6313 36.82C47.6313 36.7133 47.6206 36.6173 47.5993 36.532C47.5833 36.4467 47.5406 36.3613 47.4713 36.276L46.9593 36.684H46.8473L46.2473 36.26C46.1779 36.308 46.1246 36.3693 46.0872 36.444C46.0553 36.5187 46.0393 36.5987 46.0393 36.684C46.0393 36.716 46.0419 36.748 46.0473 36.78C46.0526 36.812 46.0606 36.844 46.0713 36.876L45.7193 36.756C45.7939 36.7187 45.8713 36.692 45.9513 36.676C46.0313 36.66 46.1033 36.652 46.1673 36.652C46.3326 36.652 46.4659 36.7027 46.5673 36.804C46.6739 36.9053 46.7273 37.0387 46.7273 37.204C46.7273 37.364 46.6766 37.4973 46.5753 37.604C46.4739 37.7053 46.3246 37.756 46.1273 37.756C45.9139 37.756 45.7433 37.6867 45.6153 37.548C45.4926 37.4093 45.4313 37.2147 45.4313 36.964C45.4313 36.7347 45.4846 36.508 45.5913 36.284C45.6979 36.06 45.9059 35.8733 46.2153 35.724L46.9033 36.228L47.5033 35.724C47.7539 35.8253 47.9326 35.972 48.0393 36.164C48.1513 36.356 48.2073 36.5453 48.2073 36.732C48.2073 36.8867 48.1886 37.0253 48.1513 37.148C48.1139 37.2653 48.0659 37.3773 48.0073 37.484L47.6953 37.268C47.7326 37.2733 47.7699 37.2787 47.8073 37.284C47.8499 37.2893 47.8899 37.292 47.9273 37.292C48.1299 37.292 48.2873 37.228 48.3993 37.1C48.5113 36.972 48.5886 36.7933 48.6313 36.564C48.6793 36.3347 48.7033 36.0653 48.7033 35.756L49.3673 35.772ZM50.7191 39.964C50.4524 39.964 50.2151 39.9267 50.0071 39.852C49.8044 39.7773 49.6444 39.6707 49.5271 39.532C49.4151 39.388 49.3591 39.22 49.3591 39.028C49.3591 38.8253 49.4257 38.6573 49.5591 38.524C49.6977 38.3853 49.8871 38.316 50.1271 38.316C50.3457 38.316 50.5244 38.3773 50.6631 38.5C50.8071 38.6227 50.8791 38.7853 50.8791 38.988C50.8791 39.0573 50.8657 39.132 50.8391 39.212C50.8177 39.292 50.7804 39.3667 50.7271 39.436C50.6791 39.5 50.6124 39.556 50.5271 39.604L50.4551 39.412C50.5084 39.4227 50.5644 39.4333 50.6231 39.444C50.6817 39.4547 50.7457 39.46 50.8151 39.46C51.0711 39.46 51.2977 39.388 51.4951 39.244C51.6924 39.0947 51.8524 38.8867 51.9751 38.62L52.5111 38.908C52.3297 39.26 52.0924 39.524 51.7991 39.7C51.5111 39.876 51.1511 39.964 50.7191 39.964ZM50.1271 39.324C50.2337 39.324 50.3191 39.2947 50.3831 39.236C50.4471 39.1773 50.4791 39.0947 50.4791 38.988C50.4791 38.8813 50.4471 38.7987 50.3831 38.74C50.3191 38.676 50.2337 38.644 50.1271 38.644C50.0204 38.644 49.9351 38.676 49.8711 38.74C49.8124 38.7987 49.7831 38.8813 49.7831 38.988C49.7831 39.0947 49.8124 39.1773 49.8711 39.236C49.9351 39.2947 50.0204 39.324 50.1271 39.324ZM50.7191 42.212C50.4524 42.212 50.2151 42.1747 50.0071 42.1C49.8044 42.02 49.6444 41.9107 49.5271 41.772C49.4151 41.628 49.3591 41.4627 49.3591 41.276C49.3591 41.0733 49.4257 40.9053 49.5591 40.772C49.6977 40.6333 49.8871 40.564 50.1271 40.564C50.3457 40.564 50.5244 40.6253 50.6631 40.748C50.8071 40.8707 50.8791 41.0333 50.8791 41.236C50.8791 41.3053 50.8657 41.38 50.8391 41.46C50.8177 41.54 50.7804 41.6147 50.7271 41.684C50.6791 41.748 50.6124 41.804 50.5271 41.852L50.4551 41.66C50.5084 41.6707 50.5644 41.6813 50.6231 41.692C50.6817 41.7027 50.7457 41.708 50.8151 41.708C51.0711 41.708 51.2977 41.636 51.4951 41.492C51.6924 41.3427 51.8524 41.1347 51.9751 40.868L52.5111 41.156C52.3297 41.508 52.0924 41.772 51.7991 41.948C51.5111 42.124 51.1511 42.212 50.7191 42.212ZM50.1271 41.572C50.2337 41.572 50.3191 41.5427 50.3831 41.484C50.4471 41.4253 50.4791 41.3427 50.4791 41.236C50.4791 41.1293 50.4471 41.0467 50.3831 40.988C50.3191 40.924 50.2337 40.892 50.1271 40.892C50.0204 40.892 49.9351 40.924 49.8711 40.988C49.8124 41.0467 49.7831 41.1293 49.7831 41.236C49.7831 41.3427 49.8124 41.4253 49.8711 41.484C49.9351 41.5427 50.0204 41.572 50.1271 41.572Z" fill="white"/>
</svg>
