<svg width="36" height="29" viewBox="0 0 36 29" fill="none" xmlns="http://www.w3.org/2000/svg">
<path d="M33.1893 7.86887C33.1893 11.8033 33.1893 15.7973 33.1893 19.7316C33.1893 19.9105 33.1893 20.0297 33.1893 20.2085C30.7021 20.2085 28.2149 20.2085 25.6684 20.2085C25.6092 20.0297 25.6092 19.7913 25.55 19.6124C26.7344 19.6124 27.8595 19.6124 29.0439 19.6124C29.1624 19.6124 29.2808 19.6124 29.4585 19.6124C29.5177 19.6124 29.6361 19.6124 29.6954 19.6124C29.8138 19.6124 29.9322 19.6124 30.0507 19.5528C31.5312 19.2547 32.5971 18.0029 32.6564 16.453C32.6564 16.453 32.6564 16.453 32.6564 16.3934C32.6564 14.2473 32.6564 12.1013 32.6564 9.95529C32.6564 9.06111 32.301 8.10732 31.5904 7.5112C30.5837 6.61702 29.1624 6.43818 27.978 7.09392C26.9713 7.63042 26.3791 8.76305 26.3198 9.89567C26.3198 10.313 26.3198 10.7302 26.3198 11.1475C26.3198 12.0417 26.3198 12.8763 26.3198 13.7704C25.7276 13.7704 25.1354 13.7704 24.6025 13.7704C24.5432 13.3532 24.484 12.9955 24.3656 12.5782C24.2471 12.0417 23.7142 11.684 23.2404 11.684C19.8649 11.684 16.5486 11.684 13.173 11.684C12.6993 11.684 12.1071 12.0417 12.0479 12.5782C11.9886 12.9955 11.8702 13.3532 11.811 13.7704C11.1596 13.7704 10.5081 13.7704 9.85673 13.7704C9.85673 12.8763 9.85673 11.9821 9.85673 11.0879C9.85673 10.611 9.85673 10.0745 9.85673 9.59762C9.67907 8.04771 8.49467 6.85547 7.01418 6.73624C5.5929 6.61702 4.29007 7.45159 3.75709 8.76305C3.52021 9.35917 3.52021 9.89567 3.52021 10.4918C3.52021 12.0417 3.52021 13.5916 3.52021 15.2011C3.52021 15.678 3.52021 16.2145 3.52021 16.6914C3.69787 18.301 5.05992 19.6124 6.65886 19.6124C7.96169 19.6124 9.26453 19.6124 10.5674 19.6124C10.5081 19.7913 10.5081 20.0297 10.4489 20.2085C7.90248 20.2085 5.41524 20.2085 2.86879 20.2085C2.86879 16.6318 2.86879 13.1147 2.86879 9.538C2.86879 9.0015 2.86879 8.40538 2.86879 7.86887C2.86879 6.31896 0.5 6.31896 0.5 7.86887C0.5 11.8033 0.5 15.7973 0.5 19.7316C0.5 20.2681 0.5 20.8643 0.5 21.4008C0.5 23.2487 0.5 25.1563 0.5 27.0043C0.5 27.2427 0.5 27.5408 0.5 27.7792C0.5 28.3754 1.03298 28.9715 1.6844 28.9715C2.33581 28.9715 2.86879 28.435 2.86879 27.7792C2.86879 26.0505 2.86879 24.3218 2.86879 22.593C5.23758 22.593 7.60638 22.593 9.97517 22.593C9.79751 23.6064 9.56063 24.6198 9.38297 25.6332C9.26453 26.2293 9.14609 26.8851 9.02765 27.4812C8.84999 28.2561 9.38297 28.9715 10.1528 28.9715C11.4557 28.9715 12.7585 28.9715 14.0613 28.9715C14.772 28.9715 15.4826 28.9715 16.1932 28.9715C16.9631 28.9715 17.5553 28.5542 18.0883 28.0177C18.3252 28.1965 18.562 28.435 18.7989 28.6138C19.4503 29.1503 20.3979 28.9715 21.1677 28.9715C22.7074 28.9715 24.3064 28.9715 25.8461 28.9715H25.9053H25.9645C26.2014 28.9715 26.4383 28.8523 26.5567 28.733C26.6159 28.6734 26.6159 28.6734 26.6751 28.6138C26.912 28.3158 27.0305 27.8985 26.9712 27.4812C26.6751 25.8717 26.3791 24.2025 26.083 22.593C28.4517 22.593 30.8205 22.593 33.1301 22.593C33.1301 24.0833 33.1301 25.514 33.1301 27.0043C33.1301 27.2427 33.1301 27.5408 33.1301 27.7792C33.1301 28.3754 33.6631 28.9715 34.3145 28.9715C34.9659 28.9715 35.4989 28.435 35.4989 27.7792C35.4989 25.9313 35.4989 24.0237 35.4989 22.1757C35.4989 21.9373 35.4989 21.6392 35.4989 21.4008C35.4989 17.4664 35.4989 13.4724 35.4989 9.538C35.4989 9.0015 35.4989 8.40538 35.4989 7.86887C35.5581 6.31896 33.1893 6.31896 33.1893 7.86887ZM28.6294 12.0417C28.6294 11.4456 28.6294 10.9091 28.6294 10.313C28.6294 10.1937 28.6294 10.0149 28.6294 9.89567C28.6294 9.83606 28.6294 9.83606 28.6294 9.77645C28.6294 9.83606 28.6886 9.59762 28.6886 9.59762V9.538C28.6886 9.47839 28.7478 9.41878 28.7478 9.35917C28.7478 9.35917 28.7478 9.35917 28.7478 9.29956C28.7478 9.29956 28.8071 9.29956 28.8071 9.23994C28.8663 9.18033 28.8663 9.18033 28.8663 9.18033C28.8663 9.18033 28.8663 9.18033 28.9255 9.18033C28.9255 9.18033 29.0439 9.12072 29.1032 9.12072C29.1624 9.12072 29.2808 9.06111 29.2808 9.06111H29.34C29.34 9.06111 29.3993 9.06111 29.4585 9.06111H29.5177C29.5769 9.06111 29.6361 9.12072 29.6954 9.12072C29.6954 9.12072 29.8138 9.18033 29.873 9.23994C29.873 9.23994 29.9322 9.29956 29.9915 9.29956L30.1099 9.47839L30.1691 9.538V9.59762C30.1691 9.59762 30.2283 9.83606 30.2283 9.77645C30.2283 9.83606 30.2283 9.89568 30.2283 10.0149C30.2283 11.1475 30.2283 12.2205 30.2283 13.3532C30.2283 14.3666 30.2283 15.38 30.2283 16.3934C30.2283 16.8107 29.873 17.1683 29.4585 17.1683C28.0372 17.1683 26.6159 17.1683 25.1947 17.1683C25.1354 16.8107 25.0762 16.453 25.017 16.0953C25.6684 16.0953 26.3791 16.0953 27.0305 16.0953C27.2081 16.0953 27.3266 16.0953 27.5042 16.0953C27.8003 16.0953 28.0964 15.9761 28.2741 15.7973C28.511 15.5588 28.6886 15.2607 28.6886 14.9031C28.6294 14.0089 28.6294 13.0551 28.6294 12.0417ZM7.25106 17.2279C7.0734 17.2279 6.83652 17.2279 6.65886 17.2279C6.1851 17.2279 5.889 16.8703 5.889 16.3934C5.889 16.0357 5.889 15.678 5.889 15.2607C5.889 13.8897 5.889 12.459 5.889 11.0879C5.889 10.6706 5.889 10.313 5.889 9.89567C5.889 9.41878 6.1851 9.06111 6.65886 9.06111C7.13262 9.06111 7.42872 9.41878 7.42872 9.89567C7.42872 10.313 7.42872 10.7899 7.42872 11.2071C7.42872 12.459 7.42872 13.7108 7.42872 14.9627C7.42872 15.38 7.60638 15.678 7.84326 15.8569C8.02091 16.0357 8.31701 16.1549 8.61311 16.1549C9.50141 16.1549 10.3897 16.1549 11.278 16.1549C11.2188 16.5126 11.1596 16.8703 11.0411 17.2279C9.79751 17.2279 8.49467 17.2279 7.25106 17.2279ZM20.0425 26.587C19.628 26.2293 19.2727 25.9313 18.8581 25.5736C18.3252 25.1563 17.6737 25.0967 17.2 25.5736C16.8447 25.9313 16.4301 26.2293 16.0748 26.587C14.5943 26.587 13.1138 26.587 11.5741 26.587C12.344 22.7122 13.1138 18.8971 13.8837 15.0223C13.9429 14.6646 14.0021 14.3666 14.0613 14.0089C16.7854 14.0089 19.4503 14.0089 22.1744 14.0089C22.8851 18.0625 23.5957 22.1161 24.3656 26.1697C24.3656 26.2889 24.4248 26.4082 24.4248 26.5274C22.9443 26.587 21.523 26.587 20.0425 26.587Z" fill="white"/>
<path d="M6.6591 5.84197C8.25803 5.84197 9.56087 4.53051 9.56087 2.92098C9.56087 1.31146 8.25803 0 6.6591 0C5.06016 0 3.75732 1.31146 3.75732 2.92098C3.75732 4.53051 5.06016 5.84197 6.6591 5.84197ZM6.6591 2.38448C6.95519 2.38448 7.19207 2.62292 7.19207 2.92098C7.19207 3.21904 6.95519 3.45749 6.6591 3.45749C6.363 3.45749 6.12612 3.21904 6.12612 2.92098C6.12612 2.62292 6.363 2.38448 6.6591 2.38448Z" fill="white"/>
<path d="M29.4584 5.84197C31.0573 5.84197 32.3602 4.53051 32.3602 2.92098C32.3602 1.31146 31.0573 0 29.4584 0C27.8595 0 26.5566 1.31146 26.5566 2.92098C26.5566 4.53051 27.8595 5.84197 29.4584 5.84197ZM29.4584 2.38448C29.7545 2.38448 29.9914 2.62292 29.9914 2.92098C29.9914 3.21904 29.7545 3.45749 29.4584 3.45749C29.1623 3.45749 28.9254 3.21904 28.9254 2.92098C28.9254 2.62292 29.1623 2.38448 29.4584 2.38448Z" fill="white"/>
</svg>
