<svg width="93" height="57" viewBox="0 0 93 57" fill="none" xmlns="http://www.w3.org/2000/svg">
<path d="M10.0274 52.8021C9.89524 52.7744 9.73082 52.7392 9.59575 52.7658C9.56492 52.7724 9.53505 52.7845 9.51401 52.8045C9.50422 52.8135 9.49639 52.824 9.49101 52.8354C9.48954 52.8381 9.48857 52.8408 9.48759 52.8436L9.18074 53.6887C9.17242 53.7109 9.16997 53.7348 9.17487 53.7575C9.18466 53.8051 9.22429 53.845 9.26932 53.8755C9.39313 53.9564 9.54974 53.9975 9.70047 54.0346C12.4112 54.651 15.2423 55.002 18.0626 55.0001C20.8829 55.0024 23.7145 54.651 26.4247 54.0346C26.5568 54.0025 26.6909 53.9658 26.8069 53.9048C26.8578 53.8771 26.9072 53.8431 26.9341 53.7977C26.9483 53.7743 26.9547 53.7477 26.9518 53.7219C26.9508 53.7113 26.9483 53.7004 26.9444 53.6902C26.9449 53.6879 26.6371 52.8459 26.6371 52.8436C26.6356 52.8397 26.6341 52.8358 26.6322 52.8322C26.6239 52.8162 26.6102 52.8017 26.593 52.7908C26.5162 52.7443 26.3914 52.7552 26.3014 52.7654C26.2436 52.7724 26.1839 52.7838 26.1271 52.7959C25.6652 52.8975 25.0402 53.0218 24.5728 53.1059C22.9368 53.3982 21.225 53.5933 19.5508 53.6636C16.3512 53.8024 13.1134 53.4799 10.0269 52.8025L10.0274 52.8021Z" stroke="#D77948" stroke-width="2.5" stroke-linecap="round" stroke-linejoin="round"/>
<path d="M9.30372 53.3376C9.29981 53.3482 9.29737 53.3591 9.2959 53.3697" stroke="#E4CE8E" stroke-width="2.5" stroke-linecap="round" stroke-linejoin="round"/>
<path d="M26.8286 53.3697C26.8276 53.3588 26.8247 53.3478 26.8208 53.3376" stroke="#E4CE8E" stroke-width="2.5" stroke-linecap="round" stroke-linejoin="round"/>
<path d="M9.90771 52.7779V44.3997H26.2169V52.7779" stroke="#E4CE8E" stroke-width="2.5" stroke-linecap="round" stroke-linejoin="round"/>
<path d="M38.4649 52.8021C38.3327 52.7744 38.1683 52.7392 38.0332 52.7658C38.0024 52.7724 37.9726 52.7845 37.9515 52.8045C37.9417 52.8135 37.9339 52.824 37.9285 52.8354C37.927 52.8381 37.9261 52.8408 37.9251 52.8436L37.6182 53.6887C37.6099 53.7109 37.6075 53.7348 37.6124 53.7575C37.6222 53.8051 37.6618 53.845 37.7068 53.8755C37.8306 53.9564 37.9872 53.9975 38.138 54.0346C40.8487 54.651 43.6797 55.002 46.5001 55.0001C49.3204 55.0024 52.152 54.651 54.8622 54.0346C54.9943 54.0025 55.1284 53.9658 55.2444 53.9048C55.2953 53.8771 55.3447 53.8431 55.3716 53.7977C55.3858 53.7743 55.3922 53.7477 55.3893 53.7219C55.3883 53.7113 55.3858 53.7004 55.3819 53.6902C55.3824 53.6879 55.0746 52.8459 55.0746 52.8436C55.0731 52.8397 55.0716 52.8358 55.0697 52.8322C55.0614 52.8162 55.0476 52.8017 55.0305 52.7908C54.9537 52.7443 54.8289 52.7552 54.7388 52.7654C54.6811 52.7724 54.6214 52.7838 54.5646 52.7959C54.1027 52.8975 53.4777 53.0218 53.0103 53.1059C51.3743 53.3982 49.6625 53.5933 47.9883 53.6636C44.7887 53.8024 41.5509 53.4799 38.4644 52.8025L38.4649 52.8021Z" stroke="#D77948" stroke-width="2.5" stroke-linecap="round" stroke-linejoin="round"/>
<path d="M37.7412 53.3376C37.7373 53.3482 37.7349 53.3591 37.7334 53.3697" stroke="#E4CE8E" stroke-width="2.5" stroke-linecap="round" stroke-linejoin="round"/>
<path d="M55.2661 53.3697C55.2651 53.3588 55.2622 53.3478 55.2583 53.3376" stroke="#E4CE8E" stroke-width="2.5" stroke-linecap="round" stroke-linejoin="round"/>
<path d="M38.3452 52.7779V44.3997H54.6539V52.7779" stroke="#E4CE8E" stroke-width="2.5" stroke-linecap="round" stroke-linejoin="round"/>
<path d="M66.9019 52.8021C66.7698 52.7744 66.6053 52.7392 66.4703 52.7658C66.4394 52.7724 66.4096 52.7845 66.3885 52.8045C66.3787 52.8135 66.3709 52.824 66.3655 52.8354C66.364 52.8381 66.3631 52.8408 66.3621 52.8436L66.0553 53.6887C66.0469 53.7109 66.0445 53.7348 66.0494 53.7575C66.0592 53.8051 66.0988 53.845 66.1438 53.8755C66.2676 53.9564 66.4243 53.9975 66.575 54.0346C69.2857 54.651 72.1168 55.002 74.9371 55.0001C77.7574 55.0024 80.589 54.651 83.2992 54.0346C83.4313 54.0025 83.5654 53.9658 83.6814 53.9048C83.7323 53.8771 83.7817 53.8431 83.8086 53.7977C83.8228 53.7743 83.8292 53.7477 83.8263 53.7219C83.8253 53.7113 83.8228 53.7004 83.8189 53.6902C83.8194 53.6879 83.5116 52.8459 83.5116 52.8436C83.5101 52.8397 83.5086 52.8358 83.5067 52.8322C83.4984 52.8162 83.4847 52.8017 83.4676 52.7908C83.3907 52.7443 83.2659 52.7552 83.1759 52.7654C83.1181 52.7724 83.0584 52.7838 83.0016 52.7959C82.5397 52.8975 81.9147 53.0218 81.4474 53.1059C79.8114 53.3982 78.0995 53.5933 76.4253 53.6636C73.2257 53.8024 69.988 53.4799 66.9014 52.8025L66.9019 52.8021Z" stroke="#D77948" stroke-width="2.5" stroke-linecap="round" stroke-linejoin="round"/>
<path d="M66.1787 53.3376C66.1748 53.3482 66.1724 53.3591 66.1709 53.3697" stroke="#E4CE8E" stroke-width="2.5" stroke-linecap="round" stroke-linejoin="round"/>
<path d="M83.7036 53.3697C83.7026 53.3588 83.6997 53.3478 83.6958 53.3376" stroke="#E4CE8E" stroke-width="2.5" stroke-linecap="round" stroke-linejoin="round"/>
<path d="M66.7832 52.7779V44.3997H83.0919V52.7779" stroke="#E4CE8E" stroke-width="2.5" stroke-linecap="round" stroke-linejoin="round"/>
<path d="M82.9724 4.19795C83.1046 4.22571 83.269 4.26088 83.4041 4.2343C83.4349 4.22766 83.4648 4.21554 83.4858 4.19561C83.4956 4.18662 83.5034 4.17606 83.5088 4.16473C83.5103 4.16199 83.5113 4.15926 83.5122 4.15652L83.8191 3.31143C83.8274 3.28915 83.8298 3.2653 83.8249 3.24263C83.8152 3.19494 83.7755 3.15507 83.7305 3.12458C83.6067 3.04367 83.4501 3.00263 83.2994 2.9655C80.5887 2.34907 77.7576 1.99806 74.9372 2.00001C72.1169 1.99767 69.2854 2.34907 66.5751 2.9655C66.443 2.99755 66.3089 3.03429 66.1929 3.09527C66.142 3.12302 66.0926 3.15703 66.0657 3.20237C66.0515 3.22582 66.0451 3.2524 66.0481 3.2782C66.049 3.28876 66.0515 3.2997 66.0554 3.30986C66.0549 3.31221 66.3627 4.15417 66.3627 4.15652C66.3642 4.16043 66.3657 4.16434 66.3676 4.16785C66.376 4.18388 66.3897 4.19834 66.4068 4.20929C66.4836 4.2558 66.6084 4.24486 66.6985 4.23469C66.7562 4.22766 66.8159 4.21632 66.8727 4.20421C67.3347 4.10258 67.9596 3.97828 68.427 3.89424C70.063 3.60186 71.7748 3.4068 73.449 3.33644C76.6486 3.19768 79.8864 3.52016 82.9729 4.19756L82.9724 4.19795Z" stroke="#D77948" stroke-width="2.5" stroke-linecap="round" stroke-linejoin="round"/>
<path d="M83.6963 3.66242C83.7002 3.65187 83.7026 3.64092 83.7041 3.63037" stroke="#E4CE8E" stroke-width="2.5" stroke-linecap="round" stroke-linejoin="round"/>
<path d="M66.1714 3.63037C66.1724 3.64132 66.1753 3.65226 66.1792 3.66242" stroke="#E4CE8E" stroke-width="2.5" stroke-linecap="round" stroke-linejoin="round"/>
<path d="M83.0919 4.22168V12.6003H66.7832V4.22168" stroke="#E4CE8E" stroke-width="2.5" stroke-linecap="round" stroke-linejoin="round"/>
<path d="M54.5354 4.19795C54.6676 4.22571 54.832 4.26088 54.967 4.2343C54.9979 4.22766 55.0277 4.21554 55.0488 4.19561C55.0586 4.18662 55.0664 4.17606 55.0718 4.16473C55.0732 4.16199 55.0742 4.15926 55.0752 4.15652L55.382 3.31143C55.3904 3.28915 55.3928 3.2653 55.3879 3.24263C55.3781 3.19494 55.3385 3.15507 55.2935 3.12458C55.1696 3.04367 55.013 3.00263 54.8623 2.9655C52.1516 2.34907 49.3205 1.99806 46.5002 2.00001C43.6799 1.99767 40.8483 2.34907 38.1381 2.9655C38.006 2.99755 37.8719 3.03429 37.7559 3.09527C37.705 3.12302 37.6556 3.15703 37.6287 3.20237C37.6145 3.22582 37.6081 3.2524 37.6111 3.2782C37.612 3.28876 37.6145 3.2997 37.6184 3.30986C37.6179 3.31221 37.9257 4.15417 37.9257 4.15652C37.9272 4.16043 37.9287 4.16434 37.9306 4.16785C37.9389 4.18388 37.9526 4.19834 37.9698 4.20929C38.0466 4.2558 38.1714 4.24486 38.2614 4.23469C38.3192 4.22766 38.3789 4.21632 38.4357 4.20421C38.8976 4.10258 39.5226 3.97828 39.9899 3.89424C41.626 3.60186 43.3378 3.4068 45.012 3.33644C48.2116 3.19768 51.4494 3.52016 54.5359 4.19756L54.5354 4.19795Z" stroke="#D77948" stroke-width="2.5" stroke-linecap="round" stroke-linejoin="round"/>
<path d="M55.2583 3.66242C55.2622 3.65187 55.2647 3.64092 55.2661 3.63037" stroke="#E4CE8E" stroke-width="2.5" stroke-linecap="round" stroke-linejoin="round"/>
<path d="M37.7339 3.63037C37.7349 3.64132 37.7378 3.65226 37.7417 3.66242" stroke="#E4CE8E" stroke-width="2.5" stroke-linecap="round" stroke-linejoin="round"/>
<path d="M54.6539 4.22168V12.6003H38.3452V4.22168" stroke="#E4CE8E" stroke-width="2.5" stroke-linecap="round" stroke-linejoin="round"/>
<path d="M26.0974 4.19795C26.2296 4.22571 26.394 4.26088 26.5291 4.2343C26.5599 4.22766 26.5897 4.21554 26.6108 4.19561C26.6206 4.18662 26.6284 4.17606 26.6338 4.16473C26.6353 4.16199 26.6362 4.15926 26.6372 4.15652L26.9441 3.31143C26.9524 3.28915 26.9548 3.2653 26.9499 3.24263C26.9401 3.19494 26.9005 3.15507 26.8555 3.12458C26.7317 3.04367 26.5751 3.00263 26.4243 2.9655C23.7136 2.34907 20.8826 1.99806 18.0622 2.00001C15.2419 1.99767 12.4103 2.34907 9.70013 2.9655C9.568 2.99755 9.4339 3.03429 9.31792 3.09527C9.26702 3.12302 9.21759 3.15703 9.19067 3.20237C9.17648 3.22582 9.17013 3.2524 9.17307 3.2782C9.17404 3.28876 9.17648 3.2997 9.1804 3.30986C9.17991 3.31221 9.48774 4.15417 9.48774 4.15652C9.48921 4.16043 9.49067 4.16434 9.49263 4.16785C9.50095 4.18388 9.51466 4.19834 9.53178 4.20929C9.60862 4.2558 9.7334 4.24486 9.82345 4.23469C9.88119 4.22766 9.94091 4.21632 9.99768 4.20421C10.4597 4.10258 11.0846 3.97828 11.552 3.89424C13.188 3.60186 14.8998 3.4068 16.574 3.33644C19.7736 3.19768 23.0114 3.52016 26.0979 4.19756L26.0974 4.19795Z" stroke="#D77948" stroke-width="2.5" stroke-linecap="round" stroke-linejoin="round"/>
<path d="M26.8208 3.66242C26.8247 3.65187 26.8272 3.64092 26.8286 3.63037" stroke="#E4CE8E" stroke-width="2.5" stroke-linecap="round" stroke-linejoin="round"/>
<path d="M9.2959 3.63037C9.29688 3.64132 9.29981 3.65226 9.30372 3.66242" stroke="#E4CE8E" stroke-width="2.5" stroke-linecap="round" stroke-linejoin="round"/>
<path d="M26.2169 4.22168V12.6003H9.90771V4.22168" stroke="#E4CE8E" stroke-width="2.5" stroke-linecap="round" stroke-linejoin="round"/>
<path d="M92 12.6003H1V44.3995H92V12.6003Z" fill="#D77948"/>
<path d="M92 12.6003H1V44.3995H92V12.6003Z" fill="#FFFAE3"/>
<path d="M92 12.6003H1V44.3995H92V12.6003Z" stroke="#E4CE8E" stroke-width="2" stroke-linecap="round" stroke-linejoin="round"/>
</svg>
