<svg width="76" height="56" viewBox="0 0 76 56" fill="none" xmlns="http://www.w3.org/2000/svg">
<path d="M45 29.5H46M42 29.5H40V26.5M43 26.5H46V23.5H45M40 23.5H42M30 26.4997C30 25.5679 30 25.1019 30.1522 24.7344C30.3552 24.2443 30.7443 23.8552 31.2344 23.6522C31.6019 23.5 32.0679 23.5 32.9997 23.5C33.9316 23.5 34.3981 23.5 34.7656 23.6522C35.2557 23.8552 35.6447 24.2443 35.8477 24.7344C35.9999 25.1019 35.9999 25.5681 35.9999 26.5C35.9999 27.4319 35.9999 27.8978 35.8477 28.2654C35.6447 28.7554 35.2557 29.1447 34.7656 29.3477C34.3981 29.4999 33.9316 29.4999 32.9997 29.4999C32.0679 29.4999 31.6019 29.4999 31.2344 29.3477C30.7443 29.1447 30.3552 28.7557 30.1522 28.2656C30 27.8981 30 27.4316 30 26.4997ZM40 16.4997C40 15.5679 40 15.1019 40.1522 14.7344C40.3552 14.2443 40.7443 13.8552 41.2344 13.6522C41.6019 13.5 42.0679 13.5 42.9997 13.5C43.9316 13.5 44.3981 13.5 44.7656 13.6522C45.2557 13.8552 45.6447 14.2443 45.8477 14.7344C45.9999 15.1019 45.9999 15.5681 45.9999 16.5C45.9999 17.4319 45.9999 17.8978 45.8477 18.2654C45.6447 18.7554 45.2557 19.1447 44.7656 19.3477C44.3981 19.4999 43.9316 19.4999 42.9997 19.4999C42.0679 19.4999 41.6019 19.4999 41.2344 19.3477C40.7443 19.1447 40.3552 18.7557 40.1522 18.2656C40 17.8981 40 17.4316 40 16.4997ZM30 16.4997C30 15.5679 30 15.1019 30.1522 14.7344C30.3552 14.2443 30.7443 13.8552 31.2344 13.6522C31.6019 13.5 32.0679 13.5 32.9997 13.5C33.9316 13.5 34.3981 13.5 34.7656 13.6522C35.2557 13.8552 35.6447 14.2443 35.8477 14.7344C35.9999 15.1019 35.9999 15.5681 35.9999 16.5C35.9999 17.4319 35.9999 17.8978 35.8477 18.2654C35.6447 18.7554 35.2557 19.1447 34.7656 19.3477C34.3981 19.4999 33.9316 19.4999 32.9997 19.4999C32.0679 19.4999 31.6019 19.4999 31.2344 19.3477C30.7443 19.1447 30.3552 18.7557 30.1522 18.2656C30 17.8981 30 17.4316 30 16.4997Z" stroke="white" stroke-width="2" stroke-linecap="round" stroke-linejoin="round"/>
<path d="M38.1467 40.636C38.1467 41.1 38.0827 41.5213 37.9547 41.9C37.8321 42.2787 37.6481 42.5987 37.4027 42.86C37.1574 43.1213 36.8507 43.3133 36.4827 43.436L37.8507 44.86H36.8187L35.7147 43.572C35.6827 43.572 35.6481 43.572 35.6107 43.572C35.5787 43.5773 35.5467 43.58 35.5147 43.58C35.0667 43.58 34.6774 43.5107 34.3467 43.372C34.0161 43.228 33.7414 43.028 33.5227 42.772C33.3041 42.5107 33.1414 42.1987 33.0347 41.836C32.9281 41.4733 32.8747 41.0707 32.8747 40.628C32.8747 40.0413 32.9707 39.5293 33.1627 39.092C33.3547 38.6547 33.6454 38.3133 34.0347 38.068C34.4294 37.8227 34.9254 37.7 35.5227 37.7C36.0934 37.7 36.5734 37.8227 36.9627 38.068C37.3521 38.308 37.6454 38.6493 37.8427 39.092C38.0454 39.5293 38.1467 40.044 38.1467 40.636ZM33.6347 40.636C33.6347 41.116 33.7014 41.5293 33.8347 41.876C33.9681 42.2227 34.1734 42.4893 34.4507 42.676C34.7334 42.8627 35.0881 42.956 35.5147 42.956C35.9467 42.956 36.2987 42.8627 36.5707 42.676C36.8481 42.4893 37.0534 42.2227 37.1867 41.876C37.3201 41.5293 37.3867 41.116 37.3867 40.636C37.3867 39.916 37.2374 39.3533 36.9387 38.948C36.6401 38.5373 36.1681 38.332 35.5227 38.332C35.0907 38.332 34.7334 38.4253 34.4507 38.612C34.1734 38.7933 33.9681 39.0573 33.8347 39.404C33.7014 39.7453 33.6347 40.156 33.6347 40.636ZM40.9887 37.788C41.4634 37.788 41.8527 37.8493 42.1567 37.972C42.4661 38.0893 42.6954 38.268 42.8447 38.508C42.9941 38.748 43.0687 39.0493 43.0687 39.412C43.0687 39.716 43.0127 39.9693 42.9007 40.172C42.7887 40.3747 42.6447 40.5373 42.4687 40.66C42.2981 40.7773 42.1167 40.8707 41.9247 40.94L43.4927 43.5H42.6527L41.2687 41.14H40.1327V43.5H39.4127V37.788H40.9887ZM40.9487 38.412H40.1327V40.532H40.9887C41.2981 40.532 41.5514 40.492 41.7487 40.412C41.9461 40.3267 42.0901 40.204 42.1807 40.044C42.2767 39.884 42.3247 39.684 42.3247 39.444C42.3247 39.1933 42.2741 38.9933 42.1727 38.844C42.0767 38.6947 41.9274 38.5853 41.7247 38.516C41.5221 38.4467 41.2634 38.412 40.9487 38.412Z" fill="white"/>
</svg>
