<svg width="25" height="24" viewBox="0 0 25 24" fill="none" xmlns="http://www.w3.org/2000/svg">
<path d="M16.6001 0.601074C16.7475 0.594847 16.8896 0.609351 17.0278 0.644043L17.1655 0.686035C17.3494 0.755429 17.5062 0.848521 17.647 0.975098V0.976074C17.7889 1.10713 17.9001 1.25862 17.9819 1.43311L17.9829 1.43408L18.5884 2.71826L18.7231 3.00439H20.8921C21.3025 3.00439 21.6938 3.08171 22.0757 3.23584V3.23682C22.4559 3.39392 22.7886 3.61594 23.0786 3.90283C23.37 4.19114 23.5915 4.52205 23.7485 4.89893L23.7495 4.8999C23.9057 5.27162 23.9838 5.66177 23.9839 6.06982V19.9497C23.9839 20.3571 23.9056 20.7445 23.7485 21.1216C23.5914 21.4985 23.3702 21.8284 23.0806 22.1118H23.0796L23.0767 22.1157C22.7875 22.4049 22.4562 22.6259 22.0786 22.7788L22.0757 22.7798C21.6947 22.9372 21.3037 23.0151 20.8921 23.0151H3.69092C3.27943 23.0151 2.88826 22.9372 2.50732 22.7798L2.50439 22.7788L2.36475 22.7183C2.04457 22.5696 1.75869 22.3682 1.50146 22.1138C1.21406 21.8295 0.992649 21.4987 0.835449 21.1216C0.678345 20.7445 0.600098 20.3571 0.600098 19.9497V6.06982C0.600147 5.66177 0.678286 5.27163 0.834473 4.8999L0.835449 4.89893C0.991865 4.52359 1.21225 4.19306 1.49951 3.90479C1.79429 3.61635 2.12747 3.39385 2.50732 3.23682L2.50635 3.23584C2.8885 3.08141 3.28016 3.00444 3.69092 3.00439H11.1479L11.2476 2.9585L16.0493 0.733887L16.0513 0.73291C16.2216 0.653098 16.4042 0.609383 16.6001 0.601074ZM16.7866 1.18213C16.6234 1.1587 16.4574 1.18107 16.2964 1.25537V1.25635L8.57471 4.82861L8.78467 5.78271H19.3833L19.0483 5.06982L17.4507 1.67236L17.4497 1.66846L17.4077 1.59229C17.3046 1.42133 17.1524 1.29913 16.9702 1.229L16.9595 1.22412L16.9487 1.22119L16.7866 1.18213ZM23.4009 11.6196C23.3964 11.2956 23.3331 10.9767 23.2056 10.6714C23.0792 10.3691 22.9005 10.097 22.6606 9.86182C22.4292 9.63486 22.1603 9.45172 21.8511 9.32666H21.8521C21.5446 9.20008 21.2245 9.13623 20.8921 9.13623H3.69092C3.05783 9.13617 2.48746 8.96147 1.96436 8.61182L1.18604 8.09131V19.9497C1.18604 20.2785 1.24989 20.5996 1.37744 20.9048C1.5038 21.2071 1.68345 21.4791 1.92334 21.7144C2.15534 21.9418 2.42471 22.1254 2.73486 22.2505C3.04124 22.3762 3.35973 22.4409 3.69092 22.4409H20.8921C21.2229 22.4409 21.5411 22.3759 21.8472 22.2505L21.8481 22.2515C22.1586 22.1264 22.4285 21.942 22.6606 21.7144C22.9005 21.4791 23.0792 21.2071 23.2056 20.9048C23.3331 20.5995 23.3964 20.2806 23.4009 19.9565V11.6196ZM23.4009 6.06299C23.3963 5.73491 23.3328 5.42034 23.2056 5.11572C23.0797 4.81465 22.9019 4.54367 22.6636 4.30908H22.6646C22.4277 4.07219 22.1567 3.89457 21.854 3.76807L21.8521 3.76709L21.6167 3.68311C21.3807 3.61253 21.141 3.579 20.8989 3.57568H18.9937L19.3276 4.2876L19.8931 5.49463L20.0278 5.78271H20.688C20.7755 5.78271 20.8339 5.80762 20.8921 5.86572L20.897 5.86963C20.9554 5.92668 20.9789 5.98319 20.979 6.06982C20.979 6.15176 20.9564 6.20908 20.897 6.26709L20.8921 6.271C20.8296 6.3334 20.7695 6.35791 20.688 6.35791H3.89502C3.81356 6.35783 3.75339 6.33347 3.69092 6.271L3.68701 6.26709L3.64893 6.22314C3.61729 6.17892 3.604 6.1313 3.604 6.06982C3.60408 5.98319 3.6286 5.92668 3.68701 5.86963L3.69092 5.86572C3.74912 5.80752 3.80758 5.78279 3.89502 5.78271H5.14307L5.24365 5.73682L7.84619 4.52979L7.63623 3.57568H3.69092C3.35983 3.57573 3.04115 3.63951 2.73486 3.76514C2.42685 3.88928 2.15349 4.07272 1.91943 4.30225C1.67845 4.5386 1.50073 4.81402 1.37549 5.11279C1.24658 5.41664 1.18218 5.73845 1.18213 6.06982C1.18213 6.39862 1.24695 6.71966 1.37451 7.0249C1.50019 7.32562 1.67758 7.59617 1.91553 7.83057V7.83154C2.15416 8.07015 2.42889 8.24711 2.729 8.37256L2.73779 8.37646C3.04146 8.49698 3.35898 8.56099 3.69092 8.56104H20.8921C21.5253 8.56104 22.0967 8.73561 22.6245 9.08643L23.4009 9.60205V6.06299Z" fill="#231F20" stroke="black"/>
</svg>
